<?xml version="1.0" standalone="no"?>
<!DOCTYPE svg PUBLIC "-//W3C//DTD SVG 20010904//EN"
 "http://www.w3.org/TR/2001/REC-SVG-20010904/DTD/svg10.dtd">
<svg version="1.0" xmlns="http://www.w3.org/2000/svg"
 width="1872.000000pt" height="1404.000000pt" viewBox="0 0 1872.000000 1404.000000"
 preserveAspectRatio="xMidYMid meet">

<g transform="translate(0.000000,1404.000000) scale(0.100000,-0.100000)"
fill="#000000" stroke="none">
<path d="M10682 13537 c-33 -35 -42 -83 -43 -234 l-1 -133 -55 0 c-46 0 -54
-3 -51 -17 2 -14 15 -19 56 -21 28 -2 52 -7 52 -13 0 -42 -35 -285 -47 -327
-17 -59 -12 -92 11 -73 21 17 44 119 61 263 8 69 15 129 15 133 0 3 32 3 71
-1 66 -6 71 -5 67 12 -2 15 -16 21 -70 28 l-66 9 -4 66 c-2 36 0 108 3 160 9
122 22 139 101 123 56 -11 68 -9 68 13 0 17 -21 24 -89 31 -51 6 -58 4 -79
-19z"/>
<path d="M9401 13521 c-15 -28 -14 -138 3 -213 29 -133 30 -128 -7 -128 -88 0
-130 -107 -57 -145 46 -24 79 -19 111 16 36 38 36 55 4 206 -14 65 -25 146
-25 181 0 56 2 62 21 62 31 0 20 34 -13 38 -18 2 -30 -3 -37 -17z m39 -404 c0
-34 -33 -61 -65 -53 -57 14 -31 76 32 76 28 0 33 -4 33 -23z"/>
<path d="M5051 13476 c-9 -11 -10 -33 -2 -88 9 -68 6 -124 -15 -261 -6 -42 -4
-51 16 -72 35 -37 83 -34 126 9 40 40 44 75 14 124 -23 37 -53 42 -85 12 l-21
-20 8 73 c4 39 4 97 -1 127 -5 30 -8 66 -7 79 1 29 -16 38 -33 17z m119 -348
c0 -26 -38 -60 -63 -56 -33 5 -31 29 5 72 29 36 32 37 45 20 7 -10 13 -26 13
-36z"/>
<path d="M6381 13444 c-25 -32 -26 -53 -5 -119 8 -27 19 -69 23 -91 l8 -42
-37 5 c-33 5 -42 1 -83 -38 -60 -58 -70 -94 -33 -126 40 -34 104 -32 138 5 56
57 63 142 27 283 l-24 91 23 15 c12 9 22 22 22 29 0 23 -37 16 -59 -12z m19
-304 c0 -29 -26 -76 -45 -84 -23 -9 -58 -7 -74 3 -10 7 -11 13 -1 32 31 59
120 95 120 49z"/>
<path d="M7375 13460 c-3 -5 -1 -29 6 -52 11 -43 17 -163 8 -172 -3 -3 -31 -8
-63 -12 l-57 -7 7 76 c9 99 -1 169 -24 165 -14 -3 -16 -14 -14 -65 2 -34 1
-85 -3 -112 -7 -49 -7 -50 -36 -44 -23 4 -29 2 -29 -11 0 -9 11 -21 25 -28 23
-10 24 -15 19 -67 -6 -62 9 -104 40 -109 16 -4 18 0 10 25 -9 30 -12 119 -4
126 3 2 30 7 61 10 l55 5 -4 -54 c-4 -48 -2 -54 14 -54 11 1 39 26 66 60 28
37 49 56 54 49 4 -6 7 -41 8 -78 1 -54 4 -66 19 -69 13 -3 17 4 19 35 4 91
-16 183 -41 183 -5 0 -28 -21 -50 -46 -43 -49 -45 -48 -31 31 5 30 4 77 -2
119 -7 48 -7 71 1 79 6 6 11 15 11 19 0 11 -58 10 -65 -2z"/>
<path d="M8468 13455 c-3 -4 -2 -21 3 -38 5 -18 9 -46 9 -64 0 -42 -37 -196
-57 -239 -23 -48 -7 -79 47 -94 111 -30 184 70 111 152 -28 31 -31 32 -61 21
-31 -11 -32 -11 -26 10 32 115 30 248 -5 255 -8 1 -18 0 -21 -3z m102 -351 c0
-28 -42 -59 -66 -50 -18 7 -13 45 12 84 15 23 16 23 35 6 10 -9 19 -28 19 -40z"/>
<path d="M2879 13379 c-24 -24 -78 -136 -105 -219 -20 -61 -65 -110 -102 -110
-17 0 -23 -5 -20 -17 5 -28 56 -29 84 -2 20 18 24 19 24 6 0 -9 15 -28 34 -42
29 -22 43 -26 93 -23 46 2 59 7 61 21 3 15 -5 17 -55 17 -32 0 -66 7 -75 14
-28 21 -22 68 16 117 18 24 48 70 65 101 57 100 42 199 -20 137z m-4 -98 c-21
-43 -29 -39 -8 4 9 19 18 33 21 31 2 -2 -4 -18 -13 -35z"/>
<path d="M14006 13382 c-8 -13 7 -29 36 -35 31 -8 45 7 28 28 -13 16 -56 20
-64 7z"/>
<path d="M2102 13338 c-5 -7 -13 -30 -17 -50 -6 -34 -9 -36 -27 -27 -27 14
-65 3 -73 -21 -8 -27 11 -59 40 -66 l24 -6 -20 -51 c-23 -57 -30 -100 -19
-118 10 -16 45 -6 43 12 -2 8 14 32 35 52 l39 38 16 -41 c14 -37 38 -52 51
-31 3 5 -2 30 -12 56 l-17 47 48 43 c26 24 47 48 47 54 0 19 -18 21 -54 6 -35
-15 -36 -15 -42 12 -10 46 -31 97 -41 100 -6 2 -15 -2 -21 -9z m28 -113 c0 -8
-4 -15 -10 -15 -5 0 -10 7 -10 15 0 8 5 15 10 15 6 0 10 -7 10 -15z m-85 -5
c3 -5 2 -10 -4 -10 -5 0 -13 5 -16 10 -3 6 -2 10 4 10 5 0 13 -4 16 -10z m55
-84 c0 -7 -8 -20 -17 -27 -15 -12 -16 -12 -10 4 4 10 7 23 7 28 0 5 5 9 10 9
6 0 10 -6 10 -14z"/>
<path d="M3513 13328 c4 -12 -1 -65 -9 -118 -19 -122 -16 -203 9 -208 14 -3
17 4 17 33 0 21 4 34 10 30 5 -3 17 3 26 14 15 17 19 17 31 5 60 -60 168 -101
168 -64 0 8 -9 16 -20 19 -18 3 -135 77 -135 85 0 2 34 31 75 65 41 34 75 68
75 76 0 32 -24 23 -90 -37 -39 -34 -78 -63 -88 -63 -10 0 -18 -9 -20 -22 -2
-12 -10 -27 -19 -35 -14 -11 -15 -7 -8 42 4 30 13 84 20 120 8 35 11 68 9 72
-3 4 -17 8 -31 8 -21 0 -24 -4 -20 -22z"/>
<path d="M3932 13293 c5 -26 38 -29 38 -4 0 15 -6 21 -21 21 -14 0 -19 -5 -17
-17z"/>
<path d="M7698 13243 c-33 -37 -58 -95 -58 -133 0 -34 4 -42 31 -55 25 -13 39
-14 80 -6 56 12 109 37 109 51 0 20 -21 19 -84 -1 -36 -12 -72 -19 -81 -16
-26 11 -16 35 20 47 55 18 74 79 37 113 -24 22 -35 21 -54 0z m23 -66 c-16
-16 -26 0 -10 19 9 11 15 12 17 4 2 -6 -1 -17 -7 -23z"/>
<path d="M9607 13240 c-32 -25 -36 -69 -9 -92 9 -9 40 -27 67 -41 l50 -26 -57
-1 c-32 0 -58 4 -58 10 0 17 -30 11 -37 -6 -10 -26 25 -44 83 -44 129 0 141
51 27 109 -23 11 -45 25 -48 31 -12 19 16 39 58 42 29 2 42 8 42 18 0 26 -85
25 -118 0z"/>
<path d="M13921 13227 c-20 -52 -23 -133 -7 -164 18 -36 43 -48 62 -32 20 17
17 39 -5 39 -27 0 -34 30 -22 97 14 72 14 70 -4 77 -10 4 -19 -2 -24 -17z"/>
<path d="M14106 13229 c-37 -29 -35 -70 5 -103 17 -14 37 -26 44 -26 8 0 17
-5 21 -12 11 -17 -56 -2 -78 18 -16 15 -18 15 -24 0 -9 -22 21 -53 58 -61 62
-14 146 53 91 72 -60 20 -103 46 -103 64 0 18 15 25 70 31 14 2 26 10 28 21 5
26 -77 24 -112 -4z"/>
<path d="M14927 13201 c-55 -59 -69 -98 -42 -118 24 -17 47 -17 92 2 44 18 40
19 46 -5 7 -25 53 -48 68 -33 8 8 4 18 -15 34 -22 19 -25 28 -20 56 5 29 4 33
-15 33 -11 0 -21 -4 -21 -8 0 -13 -78 -54 -96 -50 -12 2 -8 12 16 46 33 44 50
53 50 26 0 -9 7 -14 18 -12 30 7 10 78 -23 78 -7 0 -33 -22 -58 -49z"/>
<path d="M12368 13209 c-28 -27 -30 -34 -24 -76 8 -58 23 -80 43 -60 11 10 11
20 3 41 -5 15 -10 33 -10 41 0 22 30 45 59 45 34 0 44 9 30 27 -20 24 -68 15
-101 -18z"/>
<path d="M5993 13212 c-6 -4 -12 -43 -14 -87 -3 -65 -1 -80 11 -82 10 -2 23
15 37 47 12 28 26 50 32 50 6 0 13 -16 17 -35 7 -40 27 -60 50 -51 12 4 13 10
6 19 -5 6 -15 31 -22 55 -13 49 -48 74 -75 52 -13 -10 -15 -9 -15 8 0 24 -11
34 -27 24z"/>
<path d="M12104 13186 c-57 -57 -40 -114 32 -103 31 5 40 2 56 -18 21 -27 68
-34 68 -11 0 8 -8 17 -18 20 -10 3 -26 20 -36 37 -13 22 -23 28 -34 23 -31
-13 -62 -16 -62 -7 0 15 40 53 55 53 8 0 20 -9 27 -20 16 -25 38 -26 38 -2 0
23 -10 37 -37 51 -35 18 -53 13 -89 -23z"/>
<path d="M5307 13182 c-36 -37 -52 -84 -38 -111 17 -30 45 -42 105 -42 60 -1
76 5 76 27 0 11 -9 15 -32 14 -18 -1 -49 -1 -68 -1 l-35 2 35 17 c19 9 41 29
49 43 13 24 13 29 -2 53 -23 34 -56 33 -90 -2z m57 -35 c-2 -7 -18 -20 -34
-29 -29 -17 -30 -17 -20 2 15 28 41 51 50 45 5 -3 7 -11 4 -18z"/>
<path d="M9114 13176 c-25 -25 -34 -43 -34 -68 0 -19 3 -37 6 -41 14 -13 34 7
34 34 0 29 36 77 48 64 4 -4 9 -32 12 -63 4 -44 9 -58 23 -60 27 -5 24 106 -4
142 -27 34 -44 33 -85 -8z"/>
<path d="M11494 13195 c-10 -8 -27 -15 -36 -15 -23 0 -45 -77 -28 -94 8 -8 16
-5 31 14 42 55 60 72 66 66 3 -3 10 -29 14 -57 9 -59 20 -75 44 -65 12 4 14
10 5 25 -5 11 -10 35 -10 54 0 36 -32 87 -54 87 -7 0 -21 -7 -32 -15z"/>
<path d="M12530 13190 c-39 -39 -19 -140 28 -140 15 0 16 22 1 37 -6 6 -9 26
-7 44 3 32 6 34 45 40 47 6 58 12 48 28 -11 20 -93 13 -115 -9z"/>
<path d="M12765 13163 c-53 -79 -14 -123 79 -87 10 4 16 1 16 -9 0 -9 7 -23
16 -32 26 -26 37 -4 23 46 -16 58 -25 66 -46 47 -21 -19 -73 -34 -73 -21 0 21
31 51 49 46 24 -6 36 13 21 32 -22 27 -57 18 -85 -22z"/>
<path d="M13099 13125 l-34 -74 -15 27 c-23 44 -74 102 -87 102 -23 0 -14 -31
21 -73 18 -23 39 -58 45 -78 11 -33 9 -43 -25 -115 -71 -154 -92 -239 -58
-232 11 2 23 25 34 63 10 33 56 145 104 250 47 104 86 193 86 197 0 5 -8 8
-19 8 -13 0 -28 -20 -52 -75z"/>
<path d="M4068 13173 c-16 -18 -48 -88 -48 -104 0 -5 8 -9 19 -9 13 0 24 14
35 45 10 25 21 45 26 45 9 0 40 -73 40 -95 0 -22 28 -18 35 4 3 11 -1 37 -10
57 -30 72 -66 92 -97 57z"/>
<path d="M4298 13173 c-23 -26 -58 -99 -58 -121 0 -29 21 -42 65 -42 29 0 47
6 60 20 10 11 21 17 26 15 14 -9 31 -117 24 -160 l-6 -43 -58 5 c-54 5 -58 4
-77 -23 -25 -38 -26 -120 -1 -157 21 -33 54 -35 91 -6 27 21 66 87 66 112 0 9
9 12 29 9 16 -2 31 1 35 6 9 16 -13 65 -27 59 -9 -3 -12 16 -13 72 -2 90 -52
247 -79 245 -8 -1 -13 2 -10 6 5 8 -18 20 -39 20 -7 0 -20 -8 -28 -17z m62
-48 c0 -45 -21 -75 -52 -75 -34 0 -35 9 -3 60 29 45 55 53 55 15z m27 -323
c16 -10 -28 -106 -53 -116 -36 -14 -55 43 -34 98 8 21 16 26 42 26 18 0 38 -4
45 -8z"/>
<path d="M5662 13178 c-6 -7 -18 -33 -28 -56 l-17 -44 -12 29 c-23 51 -42 70
-57 55 -10 -10 -10 -16 1 -34 7 -11 19 -43 27 -69 14 -47 14 -50 -16 -110 -36
-70 -45 -141 -19 -147 12 -2 18 8 23 38 4 23 17 63 30 88 13 26 38 83 56 127
18 44 39 87 46 96 8 8 14 21 14 27 0 16 -35 15 -48 0z"/>
<path d="M5794 13178 c-4 -7 -9 -21 -10 -32 -2 -12 -6 -42 -10 -68 -6 -40 -4
-47 14 -57 43 -23 102 25 102 82 0 18 -11 39 -29 58 -31 31 -55 37 -67 17z
m52 -93 c-6 -25 -36 -43 -36 -21 0 7 5 28 11 46 10 28 13 30 21 16 6 -10 7
-28 4 -41z"/>
<path d="M8706 13181 c-4 -5 -9 -37 -12 -70 -7 -60 -6 -61 22 -71 35 -14 109
11 117 39 6 26 -17 75 -44 95 -25 17 -74 22 -83 7z m82 -66 c11 -23 9 -27 -14
-35 -36 -14 -44 -13 -44 9 0 53 38 70 58 26z"/>
<path d="M8874 13175 c-10 -24 2 -103 17 -121 20 -24 97 -13 122 17 23 29 20
92 -5 97 -14 3 -18 -4 -18 -31 0 -40 -19 -60 -52 -55 -20 3 -24 10 -28 52 -5
50 -25 72 -36 41z"/>
<path d="M10379 13175 c-30 -16 -62 -82 -57 -116 4 -28 39 -48 74 -41 32 6 84
55 84 80 0 25 -41 86 -60 89 -8 1 -27 -4 -41 -12z m43 -55 c22 -20 22 -20 3
-39 -46 -45 -84 -19 -49 33 20 31 19 31 46 6z"/>
<path d="M11206 13151 c-20 -21 -27 -37 -24 -57 3 -28 5 -29 52 -29 35 0 51
-4 54 -15 8 -25 34 -50 54 -50 24 0 23 21 -2 43 -15 12 -20 29 -20 65 0 43 -3
50 -25 60 -40 18 -59 15 -89 -17z m52 -28 c-2 -10 -11 -19 -21 -21 -16 -3 -17
-1 -7 17 13 25 33 28 28 4z"/>
<path d="M3895 13160 c-10 -17 7 -101 22 -107 22 -9 25 2 18 61 -7 53 -24 72
-40 46z"/>
<path d="M3211 13147 c-16 -20 -41 -96 -41 -126 0 -36 17 -51 57 -51 63 0 102
66 72 121 -8 16 -7 23 7 33 9 7 14 18 10 24 -10 16 -91 15 -105 -1z m55 -82
c7 -29 -10 -55 -37 -55 -21 0 -25 29 -9 61 15 27 38 24 46 -6z"/>
<path d="M3031 13108 c-28 -27 -32 -37 -27 -66 7 -45 23 -62 58 -62 68 0 114
94 68 140 -29 29 -61 25 -99 -12z m77 -34 c4 -25 -32 -59 -53 -51 -22 9 -19
36 8 58 26 22 41 20 45 -7z"/>
<path d="M6996 12913 c-19 -38 -46 -143 -46 -182 0 -29 -2 -31 -36 -31 -28 0
-35 -3 -32 -17 2 -12 14 -19 34 -21 30 -3 32 -5 36 -54 6 -56 35 -92 85 -104
34 -9 77 7 81 29 3 16 -1 17 -31 12 -35 -7 -74 6 -89 29 -4 6 -8 26 -8 45 l0
34 64 -5 c35 -3 70 -2 77 3 26 16 -9 33 -76 37 l-65 4 0 42 c0 22 12 73 25
111 33 93 32 88 13 93 -11 2 -22 -7 -32 -25z"/>
<path d="M2959 12878 c0 -2 -2 -30 -4 -63 -1 -33 -13 -86 -24 -117 -21 -53
-24 -57 -58 -60 -46 -4 -55 -26 -15 -34 30 -6 30 -6 16 -40 -22 -52 -18 -89
12 -113 15 -12 36 -21 48 -21 28 1 98 33 115 53 23 28 -13 32 -65 6 -74 -35
-105 1 -66 78 20 37 22 39 111 57 92 18 112 29 93 48 -7 7 -33 5 -83 -6 -40
-9 -73 -15 -75 -13 -1 1 6 34 17 72 24 84 22 148 -3 153 -10 2 -18 2 -19 0z"/>
<path d="M13548 12869 c-10 -5 -18 -15 -18 -22 0 -6 -8 -30 -17 -53 -17 -41
-18 -41 -60 -36 -41 4 -45 2 -86 -43 -85 -97 -93 -124 -53 -172 l24 -29 -54
-83 c-58 -89 -68 -133 -35 -150 24 -13 31 -5 25 28 -4 20 6 43 45 101 l51 75
55 6 c75 9 128 45 150 102 18 48 13 69 -27 113 -18 21 -18 22 3 77 12 32 28
57 35 57 19 0 18 27 -2 34 -19 7 -15 8 -36 -5z m-128 -238 c-29 -44 -56 -81
-61 -81 -9 0 -29 33 -29 50 0 19 90 109 113 112 12 2 23 3 25 2 2 -1 -20 -38
-48 -83z m115 29 c14 -27 14 -33 0 -60 -19 -37 -70 -70 -108 -70 l-27 0 52 80
c29 44 56 80 60 80 4 0 14 -13 23 -30z"/>
<path d="M16091 12834 c-11 -14 -25 -41 -31 -60 -10 -29 -16 -34 -42 -34 -38
0 -92 -39 -114 -82 -12 -23 -15 -46 -10 -82 6 -50 5 -52 -50 -121 -31 -39 -65
-87 -76 -109 -18 -34 -18 -40 -5 -54 14 -13 18 -10 36 27 12 23 48 76 81 118
l59 77 54 -3 c49 -2 57 0 76 25 20 25 22 38 18 109 -4 84 13 146 47 174 12 10
14 17 5 27 -16 20 -25 18 -48 -12z m-91 -162 c0 -2 -15 -24 -32 -49 -28 -38
-34 -42 -36 -25 -5 32 25 81 48 79 11 -1 20 -3 20 -5z m46 -98 c-5 -20 -13
-24 -41 -24 -19 0 -35 2 -35 5 0 3 17 28 38 56 l37 50 3 -32 c2 -17 1 -42 -2
-55z"/>
<path d="M13795 12830 c-3 -5 -13 -36 -21 -67 -8 -32 -35 -101 -60 -153 -31
-64 -43 -102 -39 -118 8 -32 40 -25 41 8 1 14 20 63 42 110 42 89 77 204 67
220 -8 13 -22 13 -30 0z"/>
<path d="M14513 12798 c-7 -13 -15 -31 -67 -175 -15 -40 -28 -96 -29 -125 -2
-46 0 -53 17 -53 16 0 20 8 22 50 1 28 14 82 29 120 54 139 65 176 60 185 -8
14 -22 12 -32 -2z"/>
<path d="M14725 12800 c-4 -7 0 -19 9 -28 13 -14 36 -17 110 -17 l93 1 -51
-79 -51 -78 -57 5 c-43 3 -58 1 -62 -10 -6 -15 30 -34 65 -34 24 0 24 2 -7
-54 -14 -25 -24 -54 -22 -63 4 -24 31 -23 38 2 3 11 18 41 33 66 23 39 34 48
65 53 54 10 92 27 92 41 0 18 -21 24 -43 13 -10 -5 -25 -8 -33 -6 -10 2 2 27
46 89 33 48 60 92 60 99 0 8 -16 9 -57 3 -70 -10 -170 -9 -199 1 -14 5 -24 3
-29 -4z"/>
<path d="M16523 12757 c-80 -81 -70 -135 22 -124 l45 5 -6 -37 c-3 -20 -8 -43
-10 -53 -3 -9 1 -20 7 -24 15 -9 39 22 39 52 0 12 9 48 19 82 22 69 21 104 -4
132 -29 32 -54 24 -112 -33z m89 -32 c-5 -27 -46 -55 -82 -55 -30 0 -25 18 20
62 31 32 43 38 54 29 7 -6 11 -22 8 -36z"/>
<path d="M15571 12781 c-24 -10 -57 -30 -74 -44 -28 -24 -30 -29 -16 -42 18
-18 45 -11 52 13 2 9 25 25 50 34 44 16 47 16 47 0 0 -22 -163 -182 -186 -182
-24 0 -74 -49 -74 -72 0 -23 28 -23 60 1 24 19 24 19 52 -4 59 -50 146 -39
186 22 23 36 -10 41 -50 8 -36 -30 -79 -29 -111 4 -18 17 -16 20 50 80 81 74
113 116 113 151 0 51 -28 60 -99 31z"/>
<path d="M3294 12738 c3 -13 6 -26 6 -30 0 -17 29 -7 35 12 8 26 -1 40 -27 40
-16 0 -19 -5 -14 -22z"/>
<path d="M7320 12747 c0 -8 9 -22 20 -32 18 -16 20 -16 26 -1 3 9 4 23 0 31
-7 19 -46 20 -46 2z"/>
<path d="M2111 12708 c-11 -24 -22 -51 -25 -60 -3 -11 -12 -15 -25 -11 -23 6
-42 -24 -22 -36 14 -9 16 -63 3 -117 -5 -23 -6 -48 -2 -54 15 -24 38 -2 45 42
3 24 10 57 15 73 5 17 16 56 25 88 9 32 20 55 26 52 5 -4 18 -24 29 -46 20
-39 50 -53 50 -24 0 35 -65 135 -87 135 -7 0 -22 -19 -32 -42z"/>
<path d="M16294 12734 c-13 -11 -15 -17 -6 -20 20 -9 14 -60 -19 -155 -33 -95
-34 -132 -6 -137 13 -3 17 4 17 30 0 18 9 51 19 73 22 50 31 85 40 157 6 45 4
58 -7 63 -18 7 -15 7 -38 -11z"/>
<path d="M5250 12710 c-11 -11 -23 -34 -27 -50 -3 -17 -11 -30 -19 -30 -21 0
-28 -22 -11 -35 10 -7 17 -24 17 -37 0 -61 80 -69 208 -22 29 11 42 21 42 35
0 23 -7 23 -53 4 -50 -21 -123 -36 -141 -29 -26 10 -17 27 35 67 58 44 66 59
51 93 -15 31 -72 34 -102 4z m70 -29 c0 -5 -13 -19 -30 -31 -31 -22 -38 -14
-20 21 11 19 50 27 50 10z"/>
<path d="M3595 12696 c-29 -23 -30 -23 -43 -5 -29 41 -92 10 -153 -75 -31 -42
-39 -96 -14 -96 16 0 41 38 37 57 -3 14 70 93 86 93 19 0 14 -25 -15 -85 -21
-42 -24 -58 -16 -66 13 -13 18 -8 105 100 23 30 49 56 56 59 18 6 15 -36 -8
-103 -15 -45 -17 -61 -8 -72 15 -18 20 -10 47 63 14 38 21 77 19 105 -3 41 -5
44 -33 47 -20 2 -40 -6 -60 -22z"/>
<path d="M5946 12680 c-41 -45 -48 -96 -18 -123 38 -34 153 -29 160 7 4 17 -1
18 -46 13 -92 -11 -115 13 -71 74 16 22 26 28 41 23 23 -7 39 11 31 33 -11 28
-59 14 -97 -27z"/>
<path d="M2372 12683 c-11 -16 -32 -53 -47 -83 -38 -76 -66 -110 -88 -110 -27
0 -18 -34 11 -38 15 -2 30 6 47 26 19 23 31 28 51 24 20 -4 34 4 65 34 l39 38
0 -36 c0 -34 23 -68 37 -54 4 3 7 32 8 64 0 31 5 76 9 100 13 64 -12 55 -73
-28 -79 -105 -91 -105 -43 3 27 59 31 87 12 87 -5 0 -17 -12 -28 -27z"/>
<path d="M2672 12685 c-30 -26 -31 -26 -42 -5 -16 31 -44 26 -36 -6 4 -15 0
-47 -9 -75 -28 -83 2 -104 43 -31 11 20 33 48 48 62 l27 25 -8 -45 c-14 -76
-12 -114 6 -118 19 -3 31 52 33 153 1 71 -14 81 -62 40z"/>
<path d="M7812 12690 c-17 -11 -36 -28 -42 -39 -6 -12 -18 -21 -26 -21 -12 0
-14 -10 -12 -42 4 -54 23 -59 43 -11 9 21 26 48 38 61 20 21 22 22 28 5 4 -10
8 -30 8 -44 1 -14 9 -33 19 -42 30 -27 112 -20 112 9 0 10 -13 14 -44 14 l-44
0 -7 46 c-12 83 -24 93 -73 64z"/>
<path d="M3816 12679 c-34 -27 -56 -70 -56 -109 0 -65 84 -101 153 -66 42 22
127 98 121 107 -10 17 -31 9 -88 -36 -60 -46 -109 -58 -134 -33 -19 19 -15 26
31 49 51 26 59 37 51 69 -10 44 -37 51 -78 19z m39 -39 c-3 -5 -13 -10 -21
-10 -8 0 -12 5 -9 10 3 6 13 10 21 10 8 0 12 -4 9 -10z"/>
<path d="M6225 12681 c-67 -44 -75 -54 -76 -103 -2 -54 9 -73 56 -88 57 -19
223 22 212 52 -5 16 -24 15 -110 -7 -79 -21 -117 -12 -117 28 0 21 7 25 54 36
66 15 83 32 70 69 -12 34 -48 39 -89 13z m45 -31 c-8 -5 -19 -10 -25 -10 -5 0
-3 5 5 10 8 5 20 10 25 10 6 0 3 -5 -5 -10z"/>
<path d="M5695 12655 c-27 -19 -53 -35 -56 -35 -3 0 -11 11 -17 24 -12 27 -49
43 -63 29 -6 -6 3 -23 21 -43 28 -32 29 -35 12 -45 -46 -26 -80 -59 -75 -71 8
-21 24 -17 73 20 44 34 45 34 70 16 31 -22 95 -36 104 -22 7 12 -10 27 -48 39
-44 14 -42 27 9 59 42 27 55 53 30 60 -5 2 -32 -12 -60 -31z"/>
<path d="M7521 12651 c-23 -32 -28 -90 -9 -109 31 -31 122 6 134 54 10 38 -23
78 -68 82 -30 3 -39 -2 -57 -27z m86 -28 c4 -10 -2 -23 -16 -35 -33 -26 -51
-23 -51 8 0 19 4 25 15 20 9 -3 18 1 21 9 8 20 23 19 31 -2z"/>
<path d="M6566 12651 c-11 -12 -25 -21 -32 -21 -20 0 -25 -15 -14 -46 5 -16
11 -81 12 -144 3 -110 4 -115 25 -118 18 -3 23 3 29 33 4 21 4 64 1 96 -4 46
-2 59 8 59 48 0 85 44 85 99 0 34 -14 47 -60 56 -29 5 -39 2 -54 -14z m58 -27
c32 -12 7 -74 -30 -74 -14 0 -19 35 -8 64 7 17 14 19 38 10z"/>
<path d="M3243 12653 c-15 -5 -18 -33 -4 -33 6 0 1 -20 -10 -44 -21 -49 -17
-76 13 -76 13 0 18 5 15 14 -3 8 7 40 23 72 20 42 25 61 17 66 -13 9 -36 9
-54 1z"/>
<path d="M7292 12579 c-2 -64 10 -99 33 -99 20 0 29 20 16 33 -13 13 -14 66
-1 87 11 18 -5 40 -29 40 -14 0 -18 -11 -19 -61z"/>
<path d="M13900 12509 c-29 -24 -32 -31 -20 -39 24 -16 40 -12 65 18 17 19 20
30 13 40 -14 17 -18 15 -58 -19z"/>
<path d="M8785 12105 c-5 -2 -244 -8 -530 -15 -717 -15 -996 -26 -1535 -60
-256 -16 -573 -34 -705 -41 -132 -6 -305 -17 -385 -23 -143 -13 -152 -12 -163
17 -1 5 -11 5 -21 1 -15 -6 -17 -14 -12 -47 4 -22 -3 -112 -15 -204 -22 -176
-17 -269 16 -302 27 -27 35 0 18 63 -14 54 -13 72 7 235 11 96 23 177 25 180
8 7 287 29 525 40 278 14 497 26 790 46 395 27 601 35 1230 50 344 8 687 17
762 21 l137 6 -6 -22 c-6 -22 -4 -23 28 -16 38 9 251 19 407 20 90 1 102 3
102 18 0 27 -40 32 -179 22 -172 -12 -249 -10 -263 4 -11 11 -204 17 -233 7z"/>
<path d="M9476 12098 c-9 -25 -12 -198 -4 -198 4 0 9 -102 10 -226 3 -202 5
-228 20 -238 23 -14 49 7 30 26 -9 9 -12 71 -12 218 l0 206 133 22 c72 12 149
22 170 22 31 0 38 3 35 18 -5 25 -59 26 -192 3 -168 -31 -155 -36 -158 66 -2
58 -7 88 -15 91 -7 2 -15 -2 -17 -10z"/>
<path d="M7895 11814 c-13 -30 -27 -77 -31 -104 l-6 -48 -39 5 c-31 5 -39 2
-39 -11 0 -10 15 -19 44 -27 39 -10 45 -15 50 -45 11 -56 75 -89 130 -68 18 7
22 49 5 60 -7 4 -16 -1 -21 -10 -19 -33 -78 -5 -78 38 0 14 7 17 37 14 28 -2
38 1 41 13 3 17 -23 29 -65 29 -30 0 -30 31 -2 108 32 86 34 102 15 102 -10 0
-26 -21 -41 -56z"/>
<path d="M9754 11855 c-3 -8 -2 -20 2 -27 17 -27 21 -128 12 -296 -8 -162 -5
-222 19 -405 3 -20 2 -48 -1 -61 -5 -22 -11 -24 -50 -23 -28 1 -51 -4 -62 -14
-37 -32 -86 -39 -257 -39 -143 0 -184 3 -250 21 -72 20 -86 21 -148 10 -37 -7
-73 -10 -79 -6 -6 4 -16 2 -23 -3 -16 -13 -604 -32 -1005 -32 l-323 0 3 23 c3
20 8 22 61 20 56 -2 57 -2 57 26 0 16 -9 36 -21 47 -12 10 -35 46 -51 79 -44
92 -50 98 -90 87 -27 -7 -33 -13 -34 -36 -1 -15 -15 -46 -33 -69 -70 -93 -67
-120 18 -125 46 -3 51 -5 51 -26 l0 -23 -432 -7 c-238 -3 -543 -9 -678 -12
-135 -3 -310 -1 -390 4 -154 10 -173 8 -168 -16 2 -12 20 -17 68 -20 113 -8
637 -7 1129 2 l474 9 -7 -114 c-9 -140 -38 -398 -72 -623 -28 -188 -28 -239
-1 -244 14 -3 17 4 17 41 0 25 11 116 25 204 30 199 62 474 71 619 l7 111 536
8 c560 8 713 12 896 25 82 6 124 4 165 -6 38 -10 123 -14 292 -14 221 0 238 1
250 19 16 23 55 29 85 13 22 -12 40 -2 29 17 -3 5 3 11 14 14 11 3 20 13 20
22 0 14 -6 16 -30 12 -28 -6 -29 -5 -25 21 13 76 13 96 -1 117 -16 25 -22 173
-15 435 3 114 1 176 -8 202 -13 39 -38 57 -47 33z"/>
<path d="M9567 11854 c-10 -10 12 -44 29 -44 10 0 14 8 12 22 -3 22 -27 35
-41 22z"/>
<path d="M8215 11790 c-9 -15 6 -60 20 -60 17 0 27 28 20 51 -7 20 -30 25 -40
9z"/>
<path d="M9703 11763 c-16 -6 -17 -39 -2 -49 16 -9 43 21 36 40 -7 16 -13 18
-34 9z"/>
<path d="M6098 11722 c-12 -15 -31 -46 -41 -69 -15 -31 -23 -39 -38 -36 -31 9
-22 -15 25 -62 33 -32 56 -46 94 -54 58 -12 147 -4 163 15 16 20 -12 28 -67
20 -51 -7 -127 9 -144 29 -9 11 -4 18 22 31 50 25 88 65 88 92 0 65 -59 85
-102 34z m60 -32 c-2 -12 -18 -31 -37 -43 l-35 -21 24 42 c25 44 54 57 48 22z"/>
<path d="M6440 11720 c-13 -8 -12 -15 8 -52 l22 -42 -26 -27 c-41 -43 -11 -69
32 -28 l23 21 20 -41 c37 -72 91 -102 120 -67 13 16 8 20 -30 29 -17 5 -34 22
-53 57 l-27 50 25 12 c14 6 26 19 26 30 0 22 -19 23 -46 3 -27 -20 -28 -20
-53 25 -12 22 -23 40 -24 40 -1 0 -9 -5 -17 -10z"/>
<path d="M9563 11719 c-42 -15 -21 -46 23 -35 25 7 33 31 12 39 -7 2 -23 1
-35 -4z"/>
<path d="M8700 11692 c-14 -9 -42 -34 -62 -55 -30 -32 -35 -43 -29 -65 9 -32
34 -36 40 -7 4 23 58 95 72 95 5 0 9 -25 9 -55 0 -74 24 -100 83 -91 49 8 57
13 57 32 0 12 -11 14 -47 12 l-48 -3 -3 70 c-4 87 -21 103 -72 67z"/>
<path d="M6765 11658 c-24 -24 -51 -59 -59 -79 -13 -32 -13 -38 1 -59 21 -30
73 -50 130 -50 62 0 93 9 93 26 0 16 -3 16 -82 14 -35 -1 -68 5 -87 15 l-31
16 19 37 c25 49 56 76 89 78 38 1 38 38 0 42 -21 3 -38 -7 -73 -40z"/>
<path d="M8413 11651 c-42 -49 -49 -81 -25 -111 16 -20 29 -24 72 -25 43 0 55
4 67 22 14 21 13 25 -17 53 -18 16 -30 36 -27 43 7 18 -10 57 -25 56 -7 0 -27
-17 -45 -38z m72 -91 c10 -16 -51 -12 -64 4 -6 7 -9 21 -5 30 5 14 9 14 35 -5
16 -11 31 -24 34 -29z"/>
<path d="M7428 11653 c-9 -10 -22 -34 -31 -53 -20 -46 -31 -198 -17 -235 6
-15 9 -29 8 -31 -2 -1 -351 -8 -776 -14 -621 -9 -776 -9 -788 1 -12 10 -17 10
-23 0 -6 -9 -55 -11 -204 -9 -192 3 -196 3 -222 28 -22 21 -28 22 -35 10 -17
-27 -11 -38 33 -59 39 -19 61 -21 234 -21 l190 0 7 -46 c3 -26 7 -88 7 -138 2
-113 9 -150 32 -154 19 -4 18 -23 2 249 l-5 87 403 6 c221 4 726 12 1122 17
396 5 794 14 885 19 91 5 305 14 475 20 441 16 745 36 758 49 25 25 -9 30
-128 21 -66 -5 -251 -14 -410 -20 -160 -5 -380 -15 -490 -20 -393 -20 -683
-30 -850 -30 l-170 0 3 75 c3 59 7 75 19 75 27 0 79 63 87 103 10 56 -12 87
-63 87 -24 0 -44 -7 -53 -17z m75 -57 c-3 -40 -41 -80 -60 -64 -10 8 -13 22
-9 41 8 40 25 59 50 55 16 -2 21 -9 19 -32z"/>
<path d="M9652 11653 c2 -10 10 -18 18 -18 22 0 18 29 -3 33 -14 3 -18 -1 -15
-15z"/>
<path d="M7124 11650 c-56 -22 -71 -100 -29 -140 42 -40 190 -49 183 -11 -2
12 -18 16 -66 18 -68 3 -125 24 -87 31 11 2 34 11 52 19 80 37 29 116 -53 83z
m42 -45 c-22 -17 -46 -20 -46 -6 0 11 18 19 45 20 20 0 20 0 1 -14z"/>
<path d="M8192 11588 c-6 -35 -7 -59 0 -71 14 -27 32 -15 35 24 1 19 5 42 7
52 6 25 -3 47 -19 47 -7 0 -17 -22 -23 -52z"/>
<path d="M9667 11563 c-21 -21 7 -49 33 -33 11 7 11 11 1 24 -15 17 -24 20
-34 9z"/>
<path d="M9574 11495 c-3 -8 -3 -19 1 -25 11 -17 35 -11 35 9 0 23 -29 36 -36
16z"/>
<path d="M9633 11424 c-8 -21 13 -42 28 -27 13 13 5 43 -11 43 -6 0 -13 -7
-17 -16z"/>
<path d="M9250 11314 c-17 -45 3 -72 30 -40 14 18 10 58 -7 64 -7 2 -18 -9
-23 -24z"/>
<path d="M9515 11330 c-4 -7 -3 -16 3 -22 14 -14 45 -2 40 15 -6 16 -34 21
-43 7z"/>
<path d="M9617 11283 c-12 -12 -7 -31 9 -37 24 -9 35 3 24 25 -11 20 -22 24
-33 12z"/>
<path d="M8962 11263 c2 -10 14 -19 26 -21 19 -3 23 1 20 15 -2 10 -14 19 -26
21 -19 3 -23 -1 -20 -15z"/>
<path d="M6475 11260 c-10 -16 15 -40 41 -40 32 0 31 24 -1 38 -32 15 -32 15
-40 2z"/>
<path d="M6802 11238 c2 -17 11 -24 31 -26 30 -4 33 4 13 31 -20 25 -48 22
-44 -5z"/>
<path d="M8560 11245 c-9 -10 -7 -16 7 -23 22 -11 43 -5 43 13 0 18 -37 26
-50 10z"/>
<path d="M8774 11246 c-7 -19 3 -36 22 -36 10 0 14 8 12 22 -4 26 -26 36 -34
14z"/>
<path d="M5977 11243 c-16 -15 -6 -34 15 -31 29 4 38 38 10 38 -10 0 -22 -3
-25 -7z"/>
<path d="M7032 11237 c-7 -8 -7 -18 -2 -27 11 -18 43 -2 48 24 4 20 -30 22
-46 3z"/>
<path d="M7902 11233 c4 -22 38 -30 49 -12 11 19 2 29 -27 29 -19 0 -25 -5
-22 -17z"/>
<path d="M9105 11241 c-8 -15 3 -31 21 -31 9 0 14 7 12 17 -4 20 -24 28 -33
14z"/>
<path d="M9400 11231 c0 -24 15 -35 36 -27 12 4 13 10 4 26 -14 26 -40 26 -40
1z"/>
<path d="M8337 11227 c-6 -17 11 -37 31 -37 19 0 11 44 -9 48 -9 2 -19 -3 -22
-11z"/>
<path d="M7334 11219 c-10 -17 23 -46 37 -32 7 7 9 19 6 27 -7 18 -33 21 -43
5z"/>
<path d="M8053 11214 c-10 -26 38 -47 53 -22 4 6 -1 17 -11 25 -24 17 -34 17
-42 -3z"/>
<path d="M5862 11198 c2 -12 10 -23 18 -23 22 0 19 39 -3 43 -15 3 -18 -1 -15
-20z"/>
<path d="M6074 11206 c-8 -22 3 -49 19 -43 6 2 12 14 12 27 0 27 -22 39 -31
16z"/>
<path d="M7740 11200 c0 -11 6 -20 13 -20 19 0 27 10 20 26 -8 21 -33 17 -33
-6z"/>
<path d="M6224 11185 c-9 -23 3 -45 21 -39 20 8 20 54 0 54 -9 0 -18 -7 -21
-15z"/>
<path d="M6691 11191 c-19 -12 -6 -43 16 -39 21 4 31 48 11 48 -7 0 -19 -4
-27 -9z"/>
<path d="M8634 11179 c-3 -6 1 -18 10 -27 15 -15 18 -15 26 -2 5 9 5 19 -2 27
-13 16 -25 17 -34 2z"/>
<path d="M6373 11164 c-8 -21 13 -42 28 -27 13 13 5 43 -11 43 -6 0 -13 -7
-17 -16z"/>
<path d="M6549 11164 c-9 -11 -9 -18 -1 -26 14 -14 42 -3 42 16 0 20 -27 27
-41 10z"/>
<path d="M8210 11167 c0 -14 20 -37 32 -37 4 0 8 11 8 25 0 18 -5 25 -20 25
-11 0 -20 -6 -20 -13z"/>
<path d="M5904 11145 c-10 -25 10 -39 36 -25 26 14 22 34 -8 38 -13 2 -25 -3
-28 -13z"/>
<path d="M8070 11142 c0 -10 6 -26 13 -35 10 -15 15 -16 30 -5 16 12 16 15 2
36 -19 27 -45 29 -45 4z"/>
<path d="M8830 11135 c0 -20 4 -26 18 -23 9 2 17 12 17 23 0 11 -8 21 -17 23
-14 3 -18 -3 -18 -23z"/>
<path d="M8928 11148 c-7 -19 2 -38 17 -38 18 0 26 15 19 34 -7 19 -30 21 -36
4z"/>
<path d="M6853 11140 c-26 -10 -21 -40 6 -40 26 0 44 17 38 34 -7 18 -12 19
-44 6z"/>
<path d="M7235 11130 c-7 -23 1 -40 19 -40 15 0 25 27 19 48 -7 19 -31 14 -38
-8z"/>
<path d="M9317 11143 c-14 -14 -6 -42 14 -48 28 -9 34 0 21 30 -12 25 -23 31
-35 18z"/>
<path d="M9681 11141 c-14 -9 -9 -41 6 -41 19 1 35 19 30 34 -7 18 -16 20 -36
7z"/>
<path d="M6013 11124 c-3 -8 0 -21 6 -27 10 -9 16 -8 27 7 11 16 11 22 1 28
-18 12 -27 10 -34 -8z"/>
<path d="M9216 11125 c-6 -17 17 -31 34 -20 8 5 8 11 -1 21 -15 18 -25 18 -33
-1z"/>
<path d="M7854 11115 c-7 -18 3 -35 21 -35 21 0 28 19 15 35 -16 19 -29 19
-36 0z"/>
<path d="M8500 11116 c-10 -13 -9 -17 4 -22 22 -8 49 3 44 19 -7 18 -33 20
-48 3z"/>
<path d="M9532 11113 c4 -22 43 -25 43 -3 0 8 -11 16 -23 18 -19 3 -23 0 -20
-15z"/>
<path d="M7924 11105 c-7 -18 3 -35 22 -35 8 0 14 10 14 25 0 27 -27 35 -36
10z"/>
<path d="M7034 11089 c-7 -12 15 -31 28 -23 4 3 8 12 8 20 0 17 -26 19 -36 3z"/>
<path d="M6104 11079 c-3 -6 -2 -15 4 -21 15 -15 46 -5 50 15 3 12 -3 17 -22
17 -14 0 -28 -5 -32 -11z"/>
<path d="M6499 11074 c-16 -20 1 -33 37 -26 27 5 30 12 12 30 -16 16 -33 15
-49 -4z"/>
<path d="M7363 11074 c-9 -25 10 -36 35 -18 12 8 22 19 22 25 0 16 -50 10 -57
-7z"/>
<path d="M8237 11073 c-12 -12 -7 -43 7 -43 13 0 26 20 26 41 0 10 -23 12 -33
2z"/>
<path d="M6350 11055 c0 -19 32 -36 50 -25 11 7 11 11 1 24 -17 20 -51 21 -51
1z"/>
<path d="M6597 11054 c-4 -4 -7 -18 -7 -31 0 -26 27 -32 37 -7 6 17 -19 49
-30 38z"/>
<path d="M6795 11050 c-8 -14 3 -30 21 -30 8 0 14 9 14 20 0 21 -24 28 -35 10z"/>
<path d="M10063 9939 c-8 -8 -6 -21 8 -48 38 -74 61 -256 65 -531 7 -389 23
-510 69 -510 19 0 19 18 0 64 -11 25 -17 90 -22 207 l-6 171 175 -6 c97 -3
183 -9 192 -12 23 -9 21 -151 -6 -382 -15 -137 -21 -250 -22 -422 -1 -223 0
-238 22 -297 23 -59 45 -83 57 -62 4 5 -4 35 -16 67 -21 54 -23 71 -23 292 1
179 6 280 23 424 13 113 21 228 19 287 l-3 99 27 0 c29 0 46 16 32 30 -8 7
-280 19 -430 20 l-41 0 -6 138 c-13 291 -68 517 -114 471z"/>
<path d="M9355 9869 c-99 -4 -558 -12 -1020 -18 -462 -6 -1081 -16 -1375 -21
-294 -5 -681 -10 -860 -10 -179 0 -433 -5 -566 -12 l-240 -11 -47 23 c-38 19
-49 21 -62 10 -19 -16 -20 -40 0 -40 25 0 29 -49 14 -194 -18 -184 -16 -312
11 -530 15 -125 20 -201 15 -249 -7 -64 -6 -69 11 -65 35 6 40 96 16 306 -33
289 -34 317 -17 477 8 83 15 168 15 190 l0 40 112 0 c62 1 253 4 423 8 171 4
843 14 1495 22 652 8 1412 20 1690 27 278 6 624 14 770 17 226 5 265 8 265 21
0 13 -33 15 -235 16 -129 0 -316 -3 -415 -7z"/>
<path d="M5938 9633 c-19 -16 -42 -36 -52 -45 -10 -10 -23 -18 -29 -18 -9 0
-12 -55 -12 -209 0 -216 4 -241 40 -227 12 4 14 10 5 25 -11 21 -12 177 -1
226 6 28 9 25 40 -50 42 -103 107 -222 125 -228 7 -3 18 -2 25 2 9 6 5 18 -14
47 -34 50 -69 118 -95 185 -11 30 -20 54 -20 55 0 0 27 -2 60 -4 68 -5 89 6
111 59 18 46 -3 129 -45 174 -43 45 -88 47 -138 8z m109 -35 c34 -37 49 -100
33 -139 -13 -31 -14 -31 -74 -26 -91 7 -116 22 -116 68 0 32 6 43 48 78 53 46
79 51 109 19z"/>
<path d="M8960 9567 c-5 -23 -20 -75 -32 -114 -20 -68 -23 -73 -50 -73 -33 0
-39 -29 -8 -37 18 -5 20 -11 14 -49 -8 -54 2 -108 22 -129 38 -38 154 4 128
46 -3 6 -15 4 -30 -5 -30 -21 -70 -20 -78 0 -8 20 -8 63 0 103 5 24 12 31 31
31 31 0 93 26 93 39 0 18 -20 22 -56 11 -19 -7 -37 -10 -39 -8 -2 2 7 41 21
88 28 97 30 126 9 134 -10 4 -17 -6 -25 -37z"/>
<path d="M7557 9583 c-12 -11 -7 -40 8 -53 9 -7 14 -19 11 -26 -3 -8 2 -18 11
-23 15 -8 15 -24 6 -157 -10 -136 -9 -151 7 -174 13 -19 27 -26 61 -28 69 -5
181 56 135 74 -8 3 -32 -4 -55 -15 -42 -22 -91 -28 -91 -11 0 6 -6 10 -13 10
-16 0 -11 131 5 141 6 4 42 10 80 14 82 8 98 13 98 30 0 20 -14 21 -98 10
l-77 -11 -5 61 -5 60 55 7 c88 11 170 30 176 40 14 22 -16 32 -60 20 -24 -6
-73 -14 -109 -18 l-65 -7 -16 32 c-15 29 -43 40 -59 24z"/>
<path d="M6603 9569 c-6 -6 -9 -26 -6 -45 7 -41 -5 -195 -17 -214 -7 -11 -11
-12 -25 0 -12 10 -19 10 -28 1 -15 -15 2 -45 29 -49 18 -3 19 -9 16 -67 -3
-43 0 -70 8 -80 27 -33 124 -4 150 45 18 33 -14 37 -51 6 -17 -14 -39 -26 -50
-26 -16 0 -19 7 -19 48 0 26 4 52 8 57 4 6 30 16 57 23 57 15 74 27 59 42 -8
8 -25 7 -57 -2 -26 -6 -48 -10 -50 -7 -3 2 -1 29 4 59 4 30 8 85 8 122 1 90
-9 114 -36 87z"/>
<path d="M9170 9467 c0 -19 21 -37 42 -37 21 0 24 20 6 38 -16 16 -48 15 -48
-1z"/>
<path d="M6833 9414 c-7 -18 12 -64 27 -64 10 0 12 5 14 33 1 6 5 15 10 18 13
10 -3 29 -25 29 -11 0 -22 -7 -26 -16z"/>
<path d="M8680 9393 c-51 -19 -97 -100 -98 -173 -1 -41 -7 -92 -18 -152 -5
-23 -2 -28 14 -28 24 0 40 35 48 104 6 49 9 54 40 65 49 18 94 74 94 117 0 64
-27 86 -80 67z m40 -62 c0 -21 -10 -38 -35 -60 -20 -17 -40 -31 -45 -31 -28 0
9 96 42 110 35 14 38 12 38 -19z"/>
<path d="M9559 9330 c-23 -33 -44 -60 -47 -60 -2 0 -2 12 1 27 7 35 -8 73 -29
73 -12 0 -15 -7 -11 -27 3 -14 -3 -54 -13 -89 -30 -110 -3 -112 88 -5 l53 62
-3 -60 c-2 -66 12 -94 46 -89 26 4 34 35 9 40 -15 3 -17 14 -14 96 2 87 1 92
-18 92 -13 0 -34 -20 -62 -60z"/>
<path d="M7969 9324 c-42 -42 -47 -44 -72 -33 -14 6 -33 9 -41 6 -22 -9 -9
-34 21 -42 l26 -6 -37 -38 c-42 -43 -47 -86 -11 -86 12 0 19 6 18 16 -2 8 12
30 31 48 l33 32 48 -55 c46 -55 75 -70 75 -42 0 8 -23 40 -51 70 l-51 56 41
45 c25 28 38 50 35 60 -9 22 -15 20 -65 -31z"/>
<path d="M9136 9351 c-11 -18 -23 -150 -15 -163 15 -25 33 10 40 79 6 50 4 71
-6 81 -9 10 -15 11 -19 3z"/>
<path d="M6124 9324 c-10 -38 2 -132 21 -160 30 -46 89 -24 125 46 32 63 22
110 -22 110 -26 0 -35 -30 -14 -46 16 -11 16 -15 2 -41 -8 -16 -22 -35 -31
-43 -26 -21 -37 2 -43 84 -3 55 -8 76 -18 76 -8 0 -17 -12 -20 -26z"/>
<path d="M8135 9322 c-64 -35 -82 -69 -66 -124 16 -53 48 -67 104 -47 24 8 42
20 42 29 0 16 -9 16 -62 5 -26 -6 -33 -3 -43 14 -6 12 -8 31 -5 42 8 25 62 59
93 59 26 0 31 34 6 44 -19 7 -10 10 -69 -22z"/>
<path d="M6300 9325 c0 -8 5 -24 12 -35 10 -15 9 -29 -4 -68 -28 -88 2 -91 45
-5 15 28 31 54 36 57 18 11 36 -28 41 -88 4 -49 9 -61 24 -64 17 -4 18 2 14
67 -3 51 -9 78 -24 98 -23 30 -57 41 -77 24 -9 -7 -16 -4 -25 10 -14 23 -42
25 -42 4z"/>
<path d="M8341 9305 c-23 -27 -31 -45 -31 -75 0 -62 47 -92 119 -74 49 12 50
40 1 37 -44 -3 -80 4 -80 17 0 5 16 17 35 26 41 19 58 44 48 71 -16 44 -52 43
-92 -2z m49 -20 c-7 -9 -15 -13 -17 -11 -7 7 7 26 19 26 6 0 6 -6 -2 -15z"/>
<path d="M9274 9312 c-18 -15 -21 -28 -20 -78 l1 -59 37 1 c87 3 115 65 56
123 -36 36 -45 37 -74 13z m64 -64 c2 -9 -6 -22 -18 -28 -27 -14 -30 -12 -23
23 6 31 35 34 41 5z"/>
<path d="M6813 9313 c-9 -3 -13 -33 -13 -98 0 -78 3 -94 17 -99 23 -9 51 20
35 36 -14 14 -16 128 -2 128 16 0 11 27 -6 34 -9 3 -16 6 -17 5 -1 0 -8 -3
-14 -6z"/>
<path d="M7278 9308 c-10 -7 -24 -30 -33 -50 -8 -21 -22 -38 -30 -38 -24 0
-18 -18 23 -60 38 -42 97 -66 132 -55 27 8 80 72 80 95 0 28 -28 25 -42 -5 -6
-14 -22 -32 -35 -40 -20 -14 -30 -14 -60 -4 l-36 12 25 13 c33 17 67 98 51
123 -13 21 -53 26 -75 9z m27 -69 c-13 -25 -35 -40 -35 -24 0 17 32 65 40 60
6 -4 4 -18 -5 -36z"/>
<path d="M6980 9280 c-17 -16 -34 -30 -39 -30 -4 0 -8 -19 -9 -42 0 -24 -2
-52 -4 -63 -2 -14 3 -20 16 -20 14 0 24 15 38 60 25 74 39 95 49 68 4 -10 5
-35 2 -55 -8 -54 18 -50 57 8 18 25 34 44 36 42 2 -2 10 -35 18 -72 15 -75 32
-101 56 -86 11 7 12 13 3 32 -7 13 -17 48 -23 79 -7 37 -19 64 -35 79 l-25 23
-25 -23 c-14 -13 -25 -19 -25 -12 0 15 -29 42 -45 42 -8 0 -28 -13 -45 -30z"/>
<path d="M10273 9174 c-8 -20 9 -36 30 -28 21 8 22 30 1 38 -22 8 -24 8 -31
-10z"/>
<path d="M10397 9176 c-7 -16 1 -26 20 -26 7 0 13 9 13 20 0 23 -25 27 -33 6z"/>
<path d="M10440 9075 c0 -27 6 -30 29 -16 17 11 7 41 -14 41 -9 0 -15 -9 -15
-25z"/>
<path d="M10340 9065 c0 -18 5 -25 20 -25 21 0 24 8 14 34 -10 25 -34 19 -34
-9z"/>
<path d="M10292 9003 c2 -10 10 -18 18 -18 8 0 16 8 18 18 2 12 -3 17 -18 17
-15 0 -20 -5 -18 -17z"/>
<path d="M10390 8885 c-16 -19 -6 -46 15 -39 16 7 21 39 6 48 -5 3 -14 -1 -21
-9z"/>
<path d="M6845 8819 c-159 -3 -434 -9 -610 -13 -188 -4 -405 -15 -527 -27
-173 -17 -214 -18 -243 -8 -38 14 -62 3 -52 -24 9 -24 102 -28 247 -12 74 9
272 20 440 25 625 18 1361 32 1366 27 3 -3 -2 -14 -10 -24 -9 -10 -44 -60 -78
-111 -80 -122 -78 -128 55 -123 l95 3 6 -38 c3 -22 8 -66 11 -100 l7 -61 -349
-6 c-191 -4 -449 -11 -573 -17 -127 -6 -333 -8 -472 -4 -191 5 -251 4 -263 -6
-8 -7 -13 -16 -10 -20 9 -14 517 -21 745 -10 124 6 382 13 574 17 l349 6 -6
-164 c-4 -90 -18 -290 -32 -444 -14 -154 -25 -306 -25 -337 0 -46 -3 -57 -17
-60 -15 -3 -17 -13 -15 -78 l4 -75 -1289 3 -1288 2 -18 23 c-16 21 -18 21 -31
5 -15 -21 -44 -22 -99 -7 -45 12 -69 6 -61 -15 6 -15 83 -36 136 -36 l31 0 -6
-87 c-3 -49 -13 -137 -21 -198 -9 -60 -19 -191 -22 -290 -6 -151 -4 -191 10
-245 18 -70 70 -160 92 -160 21 0 17 26 -10 68 -50 76 -60 139 -52 337 3 99
13 230 22 290 8 61 18 147 21 193 l6 82 1176 0 c857 0 1180 -3 1188 -11 8 -8
44 -10 107 -7 85 3 95 2 99 -14 7 -24 28 -23 34 1 8 30 63 36 321 34 197 -2
232 0 232 12 0 11 13 15 53 15 28 0 187 7 352 15 849 41 1386 60 1970 69 166
3 247 8 330 24 61 11 153 23 203 27 78 6 92 10 90 24 -5 23 -132 18 -291 -11
-103 -18 -162 -22 -382 -24 -394 -3 -1073 -27 -1810 -64 -110 -5 -315 -14
-455 -20 -243 -10 -482 -25 -562 -35 -36 -5 -38 -4 -38 24 0 16 6 31 15 35 12
4 15 26 15 108 0 57 11 227 25 378 14 151 28 351 32 444 l6 169 101 -6 c56 -3
211 -13 346 -21 478 -29 639 -37 985 -46 193 -5 440 -14 550 -20 110 -5 315
-10 455 -11 140 0 299 -4 353 -8 53 -3 102 -4 107 -3 18 6 10 30 -12 36 -13 4
-241 11 -507 16 -266 5 -498 12 -515 15 -17 3 -200 10 -406 15 -369 9 -522 16
-1010 46 -135 8 -291 18 -347 21 -65 4 -103 10 -103 17 0 6 -5 49 -10 96 -7
57 -6 86 1 91 6 3 30 2 53 -4 56 -13 96 -3 96 23 0 11 -4 20 -10 20 -5 0 -16
16 -24 35 -10 23 -27 41 -50 52 -22 10 -36 24 -36 35 0 28 -28 90 -38 84 -5
-3 -22 -2 -38 3 -47 12 2465 5 2576 -8 133 -15 160 -14 160 4 0 21 -5 22 -150
36 -138 13 -2743 20 -3275 8z m605 -148 c-5 -11 -15 -23 -21 -27 -6 -3 -3 5 6
20 20 30 30 35 15 7z"/>
<path d="M7324 8745 c-7 -18 3 -35 21 -35 15 0 28 27 19 41 -8 14 -34 11 -40
-6z"/>
<path d="M10344 8735 c-9 -24 22 -53 38 -37 9 9 10 17 2 29 -15 24 -33 27 -40
8z"/>
<path d="M5810 8719 c-28 -51 -43 -425 -21 -492 9 -27 18 -37 29 -35 10 2 16
12 14 23 -1 11 -6 44 -11 73 -12 79 7 371 25 400 9 13 13 30 10 38 -8 21 -34
17 -46 -7z"/>
<path d="M6106 8725 c-7 -18 16 -30 40 -21 13 5 14 9 4 21 -16 19 -36 19 -44
0z"/>
<path d="M7817 8725 c-9 -22 3 -46 22 -43 10 2 16 13 16 28 0 28 -29 40 -38
15z"/>
<path d="M8822 8703 c2 -10 10 -18 18 -18 8 0 16 8 18 18 2 12 -3 17 -18 17
-15 0 -20 -5 -18 -17z"/>
<path d="M6680 8690 c0 -11 6 -20 13 -20 19 0 27 10 20 26 -8 21 -33 17 -33
-6z"/>
<path d="M8447 8696 c-8 -20 16 -39 30 -25 14 14 6 39 -12 39 -7 0 -15 -6 -18
-14z"/>
<path d="M9296 8695 c-7 -18 25 -37 43 -25 8 4 11 15 8 24 -8 20 -43 21 -51 1z"/>
<path d="M6952 8683 c5 -26 38 -29 38 -4 0 15 -6 21 -21 21 -14 0 -19 -5 -17
-17z"/>
<path d="M9820 8681 c0 -22 30 -37 41 -20 11 18 -1 39 -22 39 -12 0 -19 -7
-19 -19z"/>
<path d="M6422 8668 c2 -12 10 -23 18 -23 22 0 19 39 -3 43 -15 3 -18 -1 -15
-20z"/>
<path d="M7183 8674 c-7 -18 11 -39 26 -30 17 11 13 46 -4 46 -9 0 -18 -7 -22
-16z"/>
<path d="M8968 8679 c-21 -12 -24 -49 -5 -49 7 0 23 7 35 16 18 13 21 19 11
30 -13 16 -18 17 -41 3z"/>
<path d="M9085 8680 c-8 -13 14 -42 26 -34 5 3 9 14 9 25 0 20 -24 26 -35 9z"/>
<path d="M6815 8670 c-9 -15 4 -30 26 -30 12 0 19 7 19 20 0 21 -33 29 -45 10z"/>
<path d="M7036 8661 c-9 -14 33 -61 49 -54 22 8 18 30 -7 47 -26 18 -35 20
-42 7z"/>
<path d="M9410 8650 c0 -13 7 -20 19 -20 25 0 38 20 20 31 -23 15 -39 10 -39
-11z"/>
<path d="M6223 8644 c-8 -20 8 -36 26 -25 15 10 8 41 -9 41 -6 0 -13 -7 -17
-16z"/>
<path d="M8176 8644 c-19 -19 -17 -38 6 -42 19 -4 35 35 20 50 -6 6 -15 3 -26
-8z"/>
<path d="M9597 8653 c-14 -13 -7 -33 11 -33 19 0 42 18 42 32 0 10 -44 11 -53
1z"/>
<path d="M8361 8637 c-9 -11 -8 -17 4 -27 12 -10 16 -9 21 5 9 23 -10 40 -25
22z"/>
<path d="M8605 8640 c-4 -7 -3 -16 3 -22 14 -14 47 -6 47 12 0 18 -40 26 -50
10z"/>
<path d="M10103 8635 c-3 -9 -3 -18 0 -22 10 -10 37 6 37 22 0 20 -29 20 -37
0z"/>
<path d="M6003 8624 c-6 -16 12 -34 35 -34 15 0 16 22 0 38 -16 16 -27 15 -35
-4z"/>
<path d="M9925 8630 c-9 -14 14 -52 28 -47 18 5 21 38 5 48 -17 11 -26 11 -33
-1z"/>
<path d="M7967 8613 c-12 -12 -7 -41 7 -46 9 -4 17 2 21 13 9 30 -10 52 -28
33z"/>
<path d="M6552 8597 c-9 -10 -8 -18 3 -33 15 -19 15 -19 30 1 8 10 14 24 12
30 -6 16 -33 17 -45 2z"/>
<path d="M6342 8591 c-17 -10 -5 -61 13 -61 20 0 28 18 21 46 -7 26 -13 29
-34 15z"/>
<path d="M9638 8588 c-7 -19 2 -38 18 -38 8 0 14 10 14 25 0 26 -24 35 -32 13z"/>
<path d="M8811 8576 c-8 -10 -8 -16 2 -25 17 -13 54 10 43 27 -10 16 -31 15
-45 -2z"/>
<path d="M9837 8583 c-12 -11 -8 -43 6 -43 22 0 40 18 34 34 -6 16 -28 21 -40
9z"/>
<path d="M6182 8564 c2 -11 11 -20 22 -22 13 -3 17 1 14 14 -2 11 -11 20 -22
22 -13 3 -17 -1 -14 -14z"/>
<path d="M6714 8569 c-9 -15 11 -33 30 -26 9 4 13 13 10 22 -7 17 -30 20 -40
4z"/>
<path d="M9230 8565 c-10 -12 -9 -16 5 -21 19 -8 40 9 31 25 -10 15 -21 14
-36 -4z"/>
<path d="M10254 8566 c-7 -19 3 -36 22 -36 10 0 14 8 12 22 -4 26 -26 36 -34
14z"/>
<path d="M9396 8563 c-3 -4 -6 -15 -6 -25 0 -24 33 -21 38 3 3 17 -21 33 -32
22z"/>
<path d="M8436 8553 c-12 -12 -6 -33 9 -33 8 0 15 6 15 14 0 17 -14 28 -24 19z"/>
<path d="M5922 8533 c4 -22 43 -25 43 -3 0 8 -11 16 -23 18 -19 3 -23 0 -20
-15z"/>
<path d="M7004 8536 c-7 -19 3 -36 22 -36 10 0 14 8 12 22 -4 26 -26 36 -34
14z"/>
<path d="M8302 8538 c-16 -16 -15 -35 2 -41 17 -7 26 1 26 24 0 23 -14 31 -28
17z"/>
<path d="M9038 8534 c-12 -11 4 -34 24 -34 13 0 18 6 16 17 -3 18 -29 29 -40
17z"/>
<path d="M8081 8506 c-9 -10 -8 -16 3 -25 10 -9 16 -8 25 3 9 10 8 16 -3 25
-10 9 -16 8 -25 -3z"/>
<path d="M9285 8510 c-8 -13 13 -40 31 -40 21 0 25 17 8 34 -18 19 -30 20 -39
6z"/>
<path d="M9685 8500 c-7 -12 12 -40 27 -40 13 0 6 43 -9 47 -6 2 -14 -1 -18
-7z"/>
<path d="M9885 8501 c-8 -15 3 -31 21 -31 9 0 14 7 12 17 -4 20 -24 28 -33 14z"/>
<path d="M6848 8488 c-7 -19 2 -38 18 -38 8 0 14 10 14 25 0 26 -24 35 -32 13z"/>
<path d="M8870 8485 c-9 -11 -10 -19 -3 -26 14 -14 56 7 50 24 -6 19 -32 20
-47 2z"/>
<path d="M10033 8485 c-8 -21 1 -28 27 -20 17 5 19 10 9 21 -15 18 -28 18 -36
-1z"/>
<path d="M7355 8480 c-8 -14 3 -30 21 -30 8 0 14 9 14 20 0 21 -24 28 -35 10z"/>
<path d="M8551 8476 c-9 -10 -8 -16 3 -25 10 -9 16 -8 25 3 9 10 8 16 -3 25
-10 9 -16 8 -25 -3z"/>
<path d="M9457 8483 c-4 -3 -7 -17 -7 -30 0 -28 26 -31 35 -3 9 30 -10 52 -28
33z"/>
<path d="M6323 8464 c-7 -18 17 -38 31 -24 11 11 1 40 -14 40 -6 0 -13 -7 -17
-16z"/>
<path d="M7183 8464 c-7 -18 17 -38 31 -24 11 11 1 40 -14 40 -6 0 -13 -7 -17
-16z"/>
<path d="M7714 8469 c-3 -6 -2 -15 4 -21 15 -15 46 -5 50 15 3 12 -3 17 -22
17 -14 0 -28 -5 -32 -11z"/>
<path d="M8352 8463 c5 -26 38 -29 38 -4 0 15 -6 21 -21 21 -14 0 -19 -5 -17
-17z"/>
<path d="M6025 8461 c-8 -15 3 -31 21 -31 9 0 14 7 12 17 -4 20 -24 28 -33 14z"/>
<path d="M6657 8463 c-3 -5 -2 -15 3 -22 10 -17 43 -6 38 12 -6 15 -34 22 -41
10z"/>
<path d="M10384 8459 c-10 -16 23 -46 36 -33 6 6 8 18 4 27 -7 19 -29 22 -40
6z"/>
<path d="M10212 8438 c5 -34 38 -37 38 -4 0 20 -5 26 -21 26 -15 0 -20 -5 -17
-22z"/>
<path d="M6532 8433 c5 -26 38 -29 38 -4 0 15 -6 21 -21 21 -14 0 -19 -5 -17
-17z"/>
<path d="M7877 8444 c-16 -16 -6 -35 16 -32 12 2 22 10 22 18 0 16 -26 25 -38
14z"/>
<path d="M8220 8431 c0 -21 26 -36 36 -20 9 15 -3 39 -21 39 -8 0 -15 -9 -15
-19z"/>
<path d="M8785 8440 c-9 -15 4 -30 26 -30 12 0 19 7 19 20 0 21 -33 29 -45 10z"/>
<path d="M6095 8426 c-15 -11 -17 -18 -9 -26 16 -16 56 -2 52 18 -4 22 -20 25
-43 8z"/>
<path d="M9087 8433 c-4 -3 0 -15 9 -25 13 -14 20 -15 31 -7 10 9 10 15 2 25
-12 15 -31 18 -42 7z"/>
<path d="M9888 8406 c-19 -14 -24 -41 -10 -50 5 -3 21 5 37 18 41 33 15 64
-27 32z"/>
<path d="M9471 8387 c-14 -17 3 -41 23 -34 9 4 16 13 16 21 0 19 -26 28 -39
13z"/>
<path d="M9754 8389 c-9 -15 12 -33 30 -26 9 4 16 13 16 22 0 17 -35 21 -46 4z"/>
<path d="M10027 8364 c-14 -14 -7 -35 11 -32 9 2 17 10 17 17 0 16 -18 25 -28
15z"/>
<path d="M10402 8328 c2 -12 10 -23 18 -23 22 0 19 39 -3 43 -15 3 -18 -1 -15
-20z"/>
<path d="M11126 7419 c-13 -20 -13 -26 0 -58 21 -51 28 -133 19 -254 -7 -104
-7 -106 -33 -109 -35 -4 -39 -26 -6 -38 l27 -11 -7 -77 c-10 -108 -26 -349
-26 -399 0 -35 3 -43 19 -43 17 0 19 12 25 128 3 70 11 186 18 258 l11 132 51
6 c28 4 120 20 205 37 154 30 199 31 222 3 6 -8 15 -14 20 -14 16 0 10 36 -8
53 -34 30 -83 29 -238 -2 -82 -16 -172 -33 -198 -37 l-48 -6 7 143 c4 100 2
158 -6 189 -13 49 -16 77 -9 99 7 24 -28 24 -45 0z"/>
<path d="M9872 6998 c-7 -7 -12 -17 -12 -24 0 -6 -6 -16 -12 -22 -10 -8 -12
-46 -8 -154 l5 -143 45 1 c48 0 140 31 140 46 0 18 -34 20 -79 4 -70 -25 -72
-23 -69 37 3 50 4 52 33 55 62 6 135 32 135 48 0 13 -7 15 -37 10 -127 -21
-133 -20 -133 5 0 54 10 66 67 84 35 11 68 15 94 11 29 -5 39 -3 39 7 0 38
-65 49 -138 23 -38 -14 -39 -13 -35 5 6 22 -16 26 -35 7z"/>
<path d="M9330 6986 c0 -8 9 -30 19 -48 29 -50 45 -137 37 -201 -7 -52 -9 -56
-37 -62 -17 -4 -33 -4 -36 -1 -11 11 16 54 33 53 24 -3 28 17 8 37 -20 20 -32
17 -56 -15 -28 -37 -33 -82 -12 -103 23 -23 89 -16 117 13 29 29 30 172 2 251
-10 30 -19 59 -20 63 0 10 -26 27 -42 27 -7 0 -13 -6 -13 -14z"/>
<path d="M11613 6954 c-3 -8 2 -30 12 -48 17 -30 17 -46 6 -202 -6 -94 -21
-246 -32 -339 -25 -217 -37 -548 -20 -569 7 -8 18 -13 26 -10 18 7 26 45 13
61 -16 19 -4 296 21 511 42 357 48 545 18 593 -14 23 -36 25 -44 3z"/>
<path d="M8182 6938 c-31 -34 -51 -77 -63 -141 -12 -57 -12 -58 -40 -52 -21 5
-29 3 -29 -7 0 -19 20 -38 41 -38 17 0 29 -19 29 -48 0 -39 22 -92 37 -92 13
0 15 9 9 54 -3 30 -9 61 -12 70 -5 12 4 17 36 22 47 8 57 22 40 54 l-12 22
-22 -21 c-35 -33 -49 -27 -42 17 14 79 52 142 86 142 22 0 30 9 23 26 -8 22
-57 17 -81 -8z"/>
<path d="M8488 6941 c-27 -4 -52 -11 -57 -16 -14 -15 -23 -72 -13 -79 6 -3 4
-35 -5 -81 -12 -68 -12 -79 2 -109 33 -70 94 -93 152 -57 47 29 62 87 38 141
-10 22 -26 47 -36 56 -17 16 -17 18 16 49 41 38 44 59 13 79 -33 20 -57 24
-110 17z m72 -41 c12 -7 12 -12 -4 -28 -9 -11 -31 -26 -47 -32 -33 -14 -38
-36 -9 -45 27 -9 80 -75 80 -101 0 -31 -38 -74 -64 -74 -54 0 -64 39 -56 217
l2 62 37 4 c20 2 38 4 41 5 3 1 12 -2 20 -8z"/>
<path d="M11450 6870 c-12 -23 -6 -40 15 -40 16 0 26 25 19 45 -8 21 -21 19
-34 -5z"/>
<path d="M6205 6871 c-3 -6 -5 -64 -4 -131 1 -116 -6 -150 -32 -150 -16 0 -10
60 6 66 17 7 20 30 6 38 -29 19 -65 -38 -59 -94 4 -39 25 -55 61 -46 47 11 60
55 59 191 -1 66 -1 123 -2 128 0 10 -28 9 -35 -2z"/>
<path d="M7100 6855 c-14 -7 -33 -16 -44 -19 -11 -4 -16 -12 -12 -21 3 -8 -4
-36 -14 -61 -37 -86 -18 -152 53 -185 76 -34 133 -22 193 43 41 43 64 89 64
129 0 40 -55 95 -105 105 -20 3 -38 10 -41 15 -8 14 -66 10 -94 -6z m131 -55
c40 0 73 -42 65 -81 -15 -75 -94 -137 -159 -125 -78 15 -104 65 -73 140 25 59
52 79 99 72 23 -3 54 -6 68 -6z"/>
<path d="M10339 6831 c-31 -31 -39 -46 -39 -75 0 -30 5 -40 33 -56 38 -24 85
-25 132 -6 44 19 49 52 8 42 -71 -16 -99 -17 -118 -3 -29 22 -11 68 32 82 42
14 48 21 33 40 -20 24 -39 18 -81 -24z"/>
<path d="M9583 6840 c-41 -24 -41 -40 -3 -83 37 -43 41 -74 8 -56 -13 7 -28
19 -34 27 -9 12 -12 12 -22 -1 -19 -23 -4 -45 43 -63 52 -19 62 -15 71 31 5
29 1 42 -20 69 -28 38 -34 55 -12 37 17 -14 39 9 34 36 -5 25 -28 26 -65 3z"/>
<path d="M10111 6836 c-11 -13 -8 -20 14 -42 l27 -27 -38 -38 c-30 -30 -35
-42 -26 -51 9 -9 19 -5 45 20 18 18 38 32 44 32 6 0 23 -16 37 -35 26 -34 46
-38 46 -11 0 7 -11 29 -25 49 -13 20 -20 39 -15 42 6 3 15 15 20 26 15 27 -14
37 -41 14 -19 -18 -20 -18 -48 9 -24 23 -30 25 -40 12z"/>
<path d="M5474 6826 c-4 -9 -4 -19 -2 -22 8 -8 407 -9 415 -1 3 4 1 13 -6 20
-8 8 -70 13 -206 16 -174 3 -195 1 -201 -13z"/>
<path d="M11283 6819 c-15 -15 -5 -39 16 -39 25 0 32 10 20 31 -11 22 -20 24
-36 8z"/>
<path d="M7626 6805 c-3 -9 -6 -32 -6 -51 0 -27 -5 -37 -25 -46 -30 -13 -33
-38 -5 -38 15 0 20 -7 20 -30 0 -41 20 -80 42 -80 19 0 25 25 8 35 -5 3 -10
21 -10 40 0 32 2 34 38 37 49 4 51 31 2 38 -35 5 -35 6 -35 54 0 49 -17 72
-29 41z"/>
<path d="M9119 6792 c-13 -10 -31 -21 -40 -24 -15 -6 -33 -93 -23 -110 10 -15
34 5 44 37 11 33 36 62 46 53 2 -3 5 -26 6 -51 1 -49 21 -70 37 -39 13 25 -3
111 -26 133 -19 19 -20 19 -44 1z"/>
<path d="M8878 6783 c-27 -32 -39 -63 -32 -86 18 -61 73 -75 116 -29 37 38 44
73 20 96 -22 19 -37 8 -28 -22 4 -11 -2 -27 -14 -40 -43 -46 -71 -12 -38 45
27 46 8 73 -24 36z"/>
<path d="M5647 6768 c-3 -13 -9 -62 -13 -110 -8 -101 -6 -100 -120 -87 -81 9
-94 7 -94 -16 0 -19 40 -26 150 -25 161 1 230 6 242 18 17 17 -39 35 -96 29
l-48 -4 6 86 c4 47 8 95 9 106 3 28 -29 31 -36 3z"/>
<path d="M8696 6759 c-45 -53 -27 -129 31 -129 27 0 69 50 78 90 15 68 -62 95
-109 39z m74 -14 c0 -21 -32 -75 -44 -75 -24 0 -20 46 6 64 23 16 38 20 38 11z"/>
<path d="M6376 6730 c-14 -17 -26 -38 -26 -46 0 -8 -7 -17 -15 -20 -22 -9 -18
-24 15 -55 24 -23 39 -29 75 -29 57 0 115 23 115 46 0 13 -6 15 -27 10 -54
-13 -123 -18 -123 -10 1 5 19 22 41 37 35 24 40 32 37 60 -3 28 -7 32 -34 35
-25 2 -37 -3 -58 -28z m54 -18 c0 -4 -9 -13 -21 -20 -19 -12 -19 -11 -9 8 10
19 30 28 30 12z"/>
<path d="M6712 6713 c-30 -24 -36 -25 -55 -13 -12 7 -30 18 -39 24 -13 8 -21
7 -30 -2 -13 -13 -5 -23 42 -53 16 -10 10 -17 -36 -45 -11 -7 -15 -16 -11 -28
7 -16 10 -16 50 7 l44 24 32 -29 c27 -24 35 -27 47 -17 13 11 11 17 -17 43
l-32 30 33 27 c21 18 31 33 27 43 -8 21 -16 20 -55 -11z"/>
<path d="M7940 6712 c-24 -7 -40 -34 -40 -67 0 -39 16 -55 55 -55 67 0 88 78
30 110 -16 9 -37 15 -45 12z m35 -62 c0 -8 -8 -16 -17 -18 -13 -2 -18 3 -18
18 0 15 5 20 18 18 9 -2 17 -10 17 -18z"/>
<path d="M5954 6665 c-19 -25 -30 -33 -38 -25 -24 24 -34 10 -32 -42 4 -68 22
-72 59 -13 31 49 47 57 47 24 0 -29 18 -59 36 -59 13 0 14 8 9 43 -9 53 -31
107 -44 107 -5 0 -22 -16 -37 -35z"/>
<path d="M7377 6693 c-4 -3 -7 -26 -7 -49 0 -34 5 -47 26 -63 30 -24 52 -26
89 -9 41 18 47 80 10 95 -23 8 -43 -13 -27 -29 17 -17 15 -26 -7 -33 -36 -11
-51 4 -51 51 0 42 -14 57 -33 37z"/>
<path d="M11366 6641 c-10 -16 5 -42 23 -39 21 4 21 42 -1 46 -9 2 -19 -1 -22
-7z"/>
<path d="M11160 6525 c-10 -12 -10 -19 -2 -27 15 -15 48 14 38 31 -10 15 -21
14 -36 -4z"/>
<path d="M11307 6524 c-9 -10 12 -34 30 -34 19 0 12 34 -8 38 -8 1 -18 0 -22
-4z"/>
<path d="M11462 6428 c-16 -16 -15 -35 3 -42 21 -8 39 28 22 43 -10 8 -17 7
-25 -1z"/>
<path d="M11015 6378 c-20 -7 -375 -13 -1025 -18 -561 -5 -1054 -13 -1130 -19
-74 -6 -227 -18 -340 -26 -113 -8 -248 -20 -300 -25 -196 -21 -449 -41 -575
-46 -71 -3 -190 -9 -263 -14 -73 -5 -271 -14 -440 -20 -887 -30 -1087 -43
-1441 -90 -329 -44 -439 -53 -584 -48 -146 5 -171 11 -162 39 9 27 -36 54 -64
39 -27 -14 -26 -22 5 -59 45 -54 107 -65 331 -59 l192 6 -7 -32 c-9 -42 -9
-284 1 -318 5 -19 14 -28 27 -28 18 0 19 4 13 43 -10 54 -10 261 0 308 l7 36
198 27 c368 50 548 63 1197 86 160 5 408 15 553 21 193 9 266 9 275 0 14 -14
1 -38 -70 -127 -64 -80 -78 -110 -62 -130 6 -8 8 -14 4 -14 -4 0 -2 -6 4 -14
6 -7 42 -16 81 -20 80 -8 75 -1 85 -127 l6 -75 -273 3 c-359 4 -791 20 -1041
38 -264 19 -460 19 -669 -1 -137 -13 -179 -14 -211 -4 -32 9 -41 9 -48 -2 -32
-49 24 -56 281 -32 197 19 427 16 810 -11 124 -8 387 -17 585 -20 198 -3 406
-8 462 -11 l102 -6 3 -391 c4 -358 6 -397 24 -452 13 -38 26 -61 37 -63 22 -4
22 22 0 79 -15 38 -17 98 -21 437 l-4 393 349 -8 c492 -11 1287 -8 1558 6 317
16 648 45 985 86 482 58 694 64 1029 29 58 -7 63 -6 59 12 -4 24 -41 29 -282
44 -218 14 -401 3 -806 -45 -329 -40 -659 -69 -980 -87 -262 -14 -1205 -17
-1622 -4 l-287 8 -6 77 c-3 42 -8 86 -10 97 -4 19 1 23 43 29 26 4 60 8 76 9
18 1 34 10 44 24 14 21 14 23 -6 28 -20 6 -62 85 -62 117 0 8 -15 44 -33 81
l-34 66 31 0 c45 1 369 27 611 49 640 61 888 70 1872 72 684 0 855 3 910 15
38 8 80 14 94 14 25 0 45 21 32 34 -10 9 -85 5 -118 -6z m-3470 -238 c-10 -11
-22 -20 -27 -20 -4 0 -3 9 4 20 7 11 19 20 27 20 11 0 10 -5 -4 -20z m-101
-155 c-4 -8 -11 -15 -16 -15 -6 0 -5 6 2 15 7 8 14 15 16 15 2 0 1 -7 -2 -15z"/>
<path d="M11315 6299 c-9 -28 15 -45 32 -22 9 12 10 20 2 30 -16 19 -27 16
-34 -8z"/>
<path d="M11164 6255 c-9 -22 22 -53 37 -38 15 15 7 47 -14 51 -9 2 -20 -4
-23 -13z"/>
<path d="M9460 6190 c0 -23 25 -27 33 -6 7 16 -1 26 -20 26 -7 0 -13 -9 -13
-20z"/>
<path d="M10506 6184 c-4 -15 -3 -31 1 -35 13 -13 32 4 35 31 4 35 -28 39 -36
4z"/>
<path d="M8370 6175 c0 -20 4 -26 18 -23 9 2 17 12 17 23 0 11 -8 21 -17 23
-14 3 -18 -3 -18 -23z"/>
<path d="M9869 6184 c-9 -11 -9 -18 -1 -26 14 -14 42 -3 42 16 0 20 -27 27
-41 10z"/>
<path d="M8873 6183 c-17 -6 -17 -43 0 -43 19 0 36 20 30 36 -5 15 -10 16 -30
7z"/>
<path d="M9667 6177 c-3 -8 -1 -20 4 -28 7 -12 11 -11 25 3 17 17 12 38 -11
38 -7 0 -15 -6 -18 -13z"/>
<path d="M10213 6179 c-16 -16 -5 -39 19 -39 14 0 19 6 16 22 -4 25 -19 33
-35 17z"/>
<path d="M10711 6181 c-18 -11 -10 -45 12 -49 12 -3 17 3 17 22 0 29 -10 38
-29 27z"/>
<path d="M9227 6174 c-16 -16 -6 -35 16 -32 12 2 22 10 22 18 0 16 -26 25 -38
14z"/>
<path d="M11040 6155 c-15 -18 -5 -35 21 -35 20 0 23 8 13 34 -8 20 -18 20
-34 1z"/>
<path d="M7877 6154 c-10 -10 12 -44 28 -44 16 0 18 9 9 34 -6 16 -25 21 -37
10z"/>
<path d="M7117 6144 c-10 -11 5 -34 22 -34 23 0 31 9 24 26 -5 14 -34 19 -46
8z"/>
<path d="M8972 6133 c2 -10 10 -18 18 -18 22 0 18 29 -3 33 -14 3 -18 -1 -15
-15z"/>
<path d="M6915 6131 c-9 -16 3 -31 26 -31 14 0 19 6 17 17 -4 20 -33 29 -43
14z"/>
<path d="M10054 6126 c-7 -19 3 -36 22 -36 10 0 14 8 12 22 -4 26 -26 36 -34
14z"/>
<path d="M7305 6121 c-8 -15 3 -31 21 -31 9 0 14 7 12 17 -4 20 -24 28 -33 14z"/>
<path d="M8560 6115 c-16 -19 -5 -47 16 -43 21 4 28 44 10 51 -8 3 -20 -1 -26
-8z"/>
<path d="M6464 6095 c-8 -19 3 -35 25 -35 27 0 33 12 14 32 -20 22 -32 23 -39
3z"/>
<path d="M8673 6089 c-14 -14 -6 -39 12 -39 18 0 26 27 11 39 -9 7 -16 7 -23
0z"/>
<path d="M9454 6080 c-30 -12 -39 -29 -19 -36 24 -10 66 12 59 31 -7 17 -10
17 -40 5z"/>
<path d="M10337 6084 c-15 -15 -7 -45 11 -42 9 2 17 12 17 22 0 20 -16 31 -28
20z"/>
<path d="M10556 6074 c-12 -31 -7 -56 12 -52 22 4 28 41 9 57 -12 9 -16 8 -21
-5z"/>
<path d="M6200 6055 c0 -20 4 -26 18 -23 9 2 17 12 17 23 0 11 -8 21 -17 23
-14 3 -18 -3 -18 -23z"/>
<path d="M8007 6068 c-7 -20 11 -58 28 -58 15 0 20 26 9 54 -7 19 -30 21 -37
4z"/>
<path d="M8187 6074 c-14 -15 -6 -34 14 -34 14 0 19 5 17 17 -3 18 -20 27 -31
17z"/>
<path d="M9237 6056 c-7 -16 1 -26 20 -26 7 0 13 9 13 20 0 23 -25 27 -33 6z"/>
<path d="M9635 6060 c-8 -14 3 -30 21 -30 8 0 14 9 14 20 0 21 -24 28 -35 10z"/>
<path d="M5754 6045 c-8 -20 4 -35 27 -35 18 0 37 25 27 36 -13 12 -49 12 -54
-1z"/>
<path d="M11402 6043 c5 -26 38 -29 38 -4 0 15 -6 21 -21 21 -14 0 -19 -5 -17
-17z"/>
<path d="M9950 6030 c0 -15 5 -20 18 -18 9 2 17 10 17 18 0 8 -8 16 -17 18
-13 2 -18 -3 -18 -18z"/>
<path d="M5605 6030 c-4 -7 -3 -16 3 -22 14 -14 45 -2 40 15 -6 16 -34 21 -43
7z"/>
<path d="M6902 6023 c2 -10 14 -19 26 -21 19 -3 23 1 20 15 -2 10 -14 19 -26
21 -19 3 -23 -1 -20 -15z"/>
<path d="M7154 6026 c-9 -22 2 -46 21 -46 12 0 15 8 13 27 -3 30 -25 42 -34
19z"/>
<path d="M6043 6014 c-8 -22 15 -44 26 -25 10 16 4 41 -10 41 -5 0 -12 -7 -16
-16z"/>
<path d="M8322 6013 c5 -26 38 -29 38 -4 0 15 -6 21 -21 21 -14 0 -19 -5 -17
-17z"/>
<path d="M11154 6016 c-8 -21 -1 -49 13 -53 14 -5 37 43 27 58 -8 14 -34 11
-40 -5z"/>
<path d="M9053 6004 c-6 -17 14 -44 33 -44 8 0 14 10 14 24 0 27 -38 44 -47
20z"/>
<path d="M6625 6000 c-4 -7 -3 -16 3 -22 14 -14 47 -6 47 12 0 18 -40 26 -50
10z"/>
<path d="M10876 5993 c-4 -9 -2 -21 3 -26 12 -12 51 9 51 28 0 21 -46 19 -54
-2z"/>
<path d="M10980 5998 c0 -7 4 -19 9 -27 8 -12 12 -12 25 -2 24 20 19 41 -9 41
-14 0 -25 -6 -25 -12z"/>
<path d="M5801 5991 c-12 -8 -12 -12 -2 -25 19 -22 51 -20 51 3 0 10 -7 22
-16 25 -19 7 -16 8 -33 -3z"/>
<path d="M8476 5985 c-5 -14 18 -45 34 -45 11 0 18 21 12 43 -5 21 -38 23 -46
2z"/>
<path d="M10121 5991 c-17 -11 -7 -41 13 -41 22 0 30 20 15 36 -9 8 -19 10
-28 5z"/>
<path d="M8850 5975 c-10 -12 -10 -18 0 -30 26 -31 59 -11 40 25 -13 24 -23
25 -40 5z"/>
<path d="M6937 5968 c-6 -20 4 -48 18 -48 18 0 24 21 13 43 -10 20 -25 22 -31
5z"/>
<path d="M9720 5958 c0 -34 16 -56 30 -42 17 17 8 58 -12 62 -13 3 -18 -3 -18
-20z"/>
<path d="M10261 5964 c-28 -20 -27 -34 2 -34 22 0 47 16 47 31 0 15 -29 17
-49 3z"/>
<path d="M10597 5973 c-12 -11 -8 -41 5 -45 18 -6 41 20 34 37 -6 16 -28 20
-39 8z"/>
<path d="M6360 5940 c0 -13 7 -20 20 -20 13 0 20 7 20 20 0 13 -7 20 -20 20
-13 0 -20 -7 -20 -20z"/>
<path d="M10398 5936 c-11 -26 -5 -56 12 -56 6 0 15 12 21 27 18 49 -11 75
-33 29z"/>
<path d="M5440 5935 c-11 -13 -11 -19 4 -33 16 -16 18 -16 32 3 8 10 13 24 11
30 -6 17 -33 17 -47 0z"/>
<path d="M6644 5929 c-10 -17 13 -36 27 -22 12 12 4 33 -11 33 -5 0 -12 -5
-16 -11z"/>
<path d="M7896 5925 c-6 -18 16 -30 39 -21 8 3 15 12 15 21 0 20 -46 20 -54 0z"/>
<path d="M11293 5925 c-6 -17 11 -35 35 -35 12 0 29 27 21 34 -2 2 -14 7 -27
10 -16 5 -24 3 -29 -9z"/>
<path d="M7164 5915 c-7 -18 2 -45 15 -45 12 0 24 37 16 50 -9 15 -25 12 -31
-5z"/>
<path d="M6187 5903 c-4 -3 -7 -12 -7 -20 0 -15 26 -18 34 -4 7 11 -18 33 -27
24z"/>
<path d="M5785 5890 c-10 -17 4 -47 25 -53 19 -5 35 17 24 34 -10 17 -42 30
-49 19z"/>
<path d="M8230 5880 c0 -15 5 -20 18 -18 9 2 17 10 17 18 0 8 -8 16 -17 18
-13 2 -18 -3 -18 -18z"/>
<path d="M8736 5891 c-9 -15 23 -36 36 -23 5 5 7 15 4 21 -9 13 -33 14 -40 2z"/>
<path d="M6040 5870 c0 -13 7 -20 19 -20 25 0 38 20 20 31 -23 15 -39 10 -39
-11z"/>
<path d="M9962 5873 c2 -10 10 -18 18 -18 22 0 18 29 -3 33 -14 3 -18 -1 -15
-15z"/>
<path d="M5623 5864 c-8 -21 13 -42 28 -27 13 13 5 43 -11 43 -6 0 -13 -7 -17
-16z"/>
<path d="M6741 5866 c-10 -11 -8 -17 11 -30 32 -22 49 -3 22 25 -18 17 -22 18
-33 5z"/>
<path d="M8053 5869 c-14 -14 -6 -39 12 -39 18 0 26 27 11 39 -9 7 -16 7 -23
0z"/>
<path d="M9220 5866 c0 -17 27 -29 35 -16 4 6 3 15 0 20 -9 15 -35 12 -35 -4z"/>
<path d="M7014 5855 c-7 -18 3 -35 21 -35 18 0 26 15 19 34 -8 20 -33 21 -40
1z"/>
<path d="M7806 5862 c-9 -15 10 -67 24 -67 7 0 18 8 23 17 9 13 7 22 -7 37
-20 22 -32 26 -40 13z"/>
<path d="M8416 5847 c-15 -11 -16 -15 -3 -25 11 -10 17 -9 25 1 17 20 0 40
-22 24z"/>
<path d="M9517 5853 c-4 -3 -7 -15 -7 -25 0 -28 34 -19 38 10 3 21 -16 31 -31
15z"/>
<path d="M6435 5841 c-9 -15 13 -51 31 -51 11 0 14 8 12 27 -3 28 -30 43 -43
24z"/>
<path d="M7300 5790 c-9 -16 -8 -22 5 -26 21 -8 39 10 32 30 -9 22 -24 20 -37
-4z"/>
<path d="M5200 4708 c-585 -21 -724 -28 -734 -38 -26 -26 16 -29 279 -19 149
6 353 13 455 17 208 8 795 -1 1180 -17 140 -6 397 -16 570 -21 173 -5 448 -15
610 -22 471 -19 1744 -16 2161 5 239 12 512 17 878 17 418 0 531 3 531 13 0 8
21 12 67 13 38 1 120 4 183 8 100 5 115 8 115 24 0 15 -10 17 -85 16 -47 0
-123 -3 -170 -5 -47 -2 -114 -2 -149 0 -51 3 -66 1 -76 -12 -11 -15 -57 -17
-491 -17 -282 0 -604 -7 -784 -16 -635 -31 -1548 -29 -2505 6 -148 5 -464 17
-700 26 -586 21 -1113 30 -1335 22z"/>
<path d="M4379 4667 c0 -1 -2 -65 -3 -142 -2 -77 -13 -213 -25 -303 -22 -161
-24 -250 -7 -255 17 -4 25 28 33 128 7 84 8 91 11 45 2 -30 -4 -165 -12 -300
-8 -135 -15 -308 -15 -385 -1 -171 -8 -244 -29 -268 -10 -12 -12 -21 -6 -27
12 -12 154 -30 236 -30 47 0 56 -3 52 -15 -10 -24 17 -27 96 -10 43 9 171 20
300 25 124 5 297 15 385 22 113 9 310 12 670 9 924 -9 1118 -6 1575 22 842 52
1619 65 3170 54 235 -2 442 5 470 16 8 3 26 7 40 9 14 2 25 9 25 18 0 18 -24
18 -240 1 -122 -11 -232 -12 -460 -5 -751 22 -2201 -3 -3005 -53 -455 -28
-634 -30 -1585 -23 -375 3 -559 1 -660 -8 -196 -18 -872 -26 -951 -11 l-61 12
9 51 c4 28 8 123 9 211 0 88 7 258 14 377 9 140 12 308 9 470 -6 301 -10 354
-30 362 -8 3 -14 4 -15 3z"/>
<path d="M11364 4635 c-9 -22 2 -225 21 -390 22 -198 14 -566 -14 -599 -15
-18 -31 -137 -31 -231 0 -91 7 -125 25 -125 9 0 14 41 18 148 7 157 14 203 28
180 5 -7 9 -8 10 -3 3 43 7 117 14 288 l8 197 228 -2 c125 -2 230 -6 234 -9 3
-4 -1 -44 -9 -89 -9 -45 -16 -129 -16 -186 0 -79 -3 -104 -13 -104 -7 0 -22
-6 -33 -14 -16 -12 -17 -18 -7 -34 9 -15 10 -64 3 -193 -6 -139 -14 -194 -35
-274 -37 -135 -41 -162 -22 -167 12 -3 12 -13 -4 -78 -9 -41 -14 -79 -11 -85
4 -5 5 -20 4 -31 -26 -202 -39 -341 -31 -348 20 -22 32 20 50 176 23 196 44
315 60 334 9 11 9 20 0 38 -10 18 -8 51 12 177 16 100 23 174 20 212 -4 46 -2
60 11 70 19 14 35 155 36 310 0 128 16 235 41 269 l19 27 -26 18 c-23 15 -59
17 -263 20 -130 2 -241 5 -247 7 -11 4 -30 179 -42 385 -5 78 -11 116 -19 119
-7 2 -16 -4 -19 -13z"/>
<path d="M10135 4367 c-12 -29 -33 -224 -32 -287 1 -14 0 -50 -1 -80 -2 -52
-4 -56 -32 -67 -24 -9 -30 -9 -30 2 0 28 20 65 35 65 17 0 21 25 5 35 -35 22
-80 -40 -80 -109 0 -48 22 -59 73 -36 65 29 65 31 72 195 5 136 12 202 30 276
5 19 2 28 -10 32 -12 5 -20 -2 -30 -26z"/>
<path d="M5213 4238 c-39 -68 -87 -154 -108 -193 -21 -38 -47 -80 -58 -92 -26
-29 -16 -55 20 -51 20 2 28 9 28 23 0 11 16 49 36 85 l36 64 49 -3 c27 -1 52
-8 56 -14 11 -18 9 -107 -2 -107 -13 0 -13 -27 0 -35 5 -3 19 -1 31 6 20 10
21 17 17 84 -4 65 -3 74 14 78 25 7 23 28 -3 34 -20 6 -21 11 -18 122 5 160
-6 160 -98 -1z m57 -58 l0 -70 -41 0 c-22 0 -39 3 -37 8 7 18 73 132 75 132 2
0 3 -31 3 -70z"/>
<path d="M8918 4313 c-36 -37 -44 -62 -67 -199 -11 -64 -23 -119 -25 -122 -3
-3 -12 1 -20 7 -8 7 -20 10 -26 6 -18 -11 -11 -35 15 -47 36 -16 34 -63 -5
-116 -16 -23 -30 -46 -30 -52 0 -19 26 -10 52 18 36 38 48 65 48 106 0 34 3
37 65 65 42 20 65 36 65 47 0 19 -23 16 -82 -10 l-38 -16 6 32 c31 176 44 223
68 247 21 20 27 22 40 12 13 -11 17 -10 22 3 8 22 -13 46 -40 46 -12 0 -34
-12 -48 -27z"/>
<path d="M6960 4314 c-11 -12 -11 -32 -2 -103 7 -49 12 -103 12 -121 0 -28 -2
-31 -15 -20 -22 18 -62 -12 -86 -63 -23 -51 -24 -76 -3 -105 31 -44 93 -19
125 52 22 48 24 135 8 252 -7 54 -7 80 0 87 17 17 13 37 -8 37 -10 0 -24 -7
-31 -16z m0 -334 c-17 -40 -47 -67 -62 -52 -17 17 -1 61 35 96 32 31 32 31 35
8 2 -13 -2 -37 -8 -52z"/>
<path d="M8304 4238 c0 -35 -3 -84 -7 -110 -8 -43 -10 -47 -40 -50 -37 -4 -45
-31 -10 -36 21 -3 22 -7 16 -61 -3 -37 -2 -61 5 -65 15 -9 25 11 37 69 10 48
11 50 55 60 57 14 63 41 8 38 -21 -1 -38 1 -38 5 0 11 19 143 25 180 6 30 4
32 -23 32 -28 0 -28 0 -28 -62z"/>
<path d="M7722 4274 c-12 -8 -22 -21 -22 -29 0 -22 22 -29 35 -12 7 10 23 17
36 17 23 0 23 -1 -7 -19 -16 -10 -50 -51 -74 -91 -37 -61 -45 -84 -48 -135 -5
-74 7 -102 53 -120 39 -17 79 -8 137 30 91 61 144 146 128 207 -14 48 -80 122
-133 147 -52 25 -75 26 -105 5z m155 -96 c60 -62 60 -96 2 -169 -56 -71 -147
-110 -184 -79 -40 33 -1 171 71 247 40 42 71 43 111 1z"/>
<path d="M8598 4280 c-10 -6 -18 -20 -18 -31 0 -11 -11 -35 -25 -53 -43 -56
-79 -147 -79 -200 0 -41 5 -53 28 -72 57 -50 146 -24 200 58 51 78 64 134 43
190 -34 87 -102 136 -149 108z m72 -70 c0 -11 6 -20 13 -20 16 0 37 -41 37
-71 0 -34 -49 -126 -81 -154 -37 -31 -106 -35 -116 -8 -20 51 15 155 78 234
33 42 69 52 69 19z"/>
<path d="M6395 4245 c-33 -8 -86 -14 -118 -15 -50 0 -58 -2 -55 -17 3 -16 15
-18 86 -17 l82 1 6 -32 c3 -18 1 -65 -5 -103 -6 -39 -11 -87 -11 -106 0 -34 0
-35 -52 -40 -29 -3 -64 -4 -78 -3 -16 1 -26 -4 -28 -15 -4 -20 58 -33 111 -23
19 4 44 2 54 -4 14 -7 23 -7 31 1 14 14 114 13 142 -2 17 -9 25 -9 34 0 8 9 5
16 -13 31 -22 18 -61 24 -128 20 -32 -2 -33 -1 -33 36 1 21 7 81 14 133 8 52
12 98 9 103 -2 4 -14 8 -26 8 -52 3 42 17 121 18 74 1 83 3 80 19 -3 14 -16
17 -83 19 -44 1 -107 -5 -140 -12z"/>
<path d="M9163 4243 c-24 -3 -34 -10 -37 -26 -2 -12 -9 -52 -15 -89 -6 -36
-25 -98 -41 -137 -17 -38 -30 -76 -30 -84 0 -17 27 -30 35 -17 3 4 18 -4 33
-19 56 -56 151 -46 192 21 39 64 15 151 -49 178 -37 15 -39 23 -7 38 39 17 96
73 96 93 0 10 -8 22 -17 27 -23 12 -118 21 -160 15z m100 -42 l29 -6 -24 -21
c-12 -11 -45 -33 -71 -47 l-49 -27 7 43 c10 62 33 75 108 58z m-23 -174 c29
-19 35 -29 38 -64 3 -35 -1 -44 -28 -67 -35 -29 -44 -31 -88 -15 -35 12 -50
43 -32 64 14 17 5 50 -10 40 -8 -5 -1 22 25 93 4 10 12 8 32 -8 16 -12 44 -31
63 -43z"/>
<path d="M5606 4165 c-8 -9 -18 -32 -21 -53 -4 -20 -13 -62 -20 -92 -7 -30
-10 -59 -5 -63 12 -13 45 -3 42 12 -2 12 15 120 24 150 4 11 8 9 20 -7 18 -26
32 -28 41 -6 3 9 -6 27 -23 45 -32 33 -37 35 -58 14z"/>
<path d="M5433 4148 c-35 -56 -43 -85 -37 -131 5 -37 10 -47 23 -45 11 2 18
18 22 53 9 74 19 99 32 86 15 -15 47 -14 47 2 0 35 -69 62 -87 35z"/>
<path d="M5788 4138 c-46 -36 -74 -128 -46 -156 18 -18 56 -14 77 7 16 16 20
17 25 5 3 -8 13 -14 22 -14 13 0 15 8 9 53 -11 85 -24 86 -67 8 -18 -34 -38
-41 -38 -15 0 33 40 84 67 84 18 0 24 5 21 18 -4 21 -47 28 -70 10z"/>
<path d="M6057 4129 c-9 -6 -17 -18 -17 -27 0 -9 -8 -39 -18 -65 -14 -36 -21
-45 -29 -35 -18 24 -34 73 -31 98 2 19 -2 25 -16 25 -37 0 -40 -28 -11 -94 16
-34 35 -66 44 -71 14 -8 11 -24 -27 -137 -23 -70 -43 -133 -42 -139 0 -6 7
-17 15 -24 12 -10 16 -10 19 1 25 89 141 437 148 445 13 17 -13 35 -35 23z"/>
<path d="M10339 4120 c-9 -5 -22 -23 -29 -40 -11 -28 -10 -36 14 -80 24 -44
25 -50 11 -64 -13 -12 -21 -13 -40 -4 -29 13 -31 23 -9 45 23 23 2 40 -31 25
-18 -8 -25 -19 -25 -39 0 -38 9 -50 53 -68 43 -18 67 -10 93 30 16 24 15 28
-9 76 -28 58 -26 79 8 79 33 0 39 16 13 34 -26 18 -28 19 -49 6z"/>
<path d="M7155 4056 c-35 -46 -45 -118 -20 -146 27 -30 68 -34 120 -11 25 11
45 27 45 35 0 20 -14 20 -67 0 -36 -14 -45 -14 -59 -3 -14 11 -12 15 17 28 18
9 40 28 48 42 12 22 12 29 0 55 -21 43 -51 43 -84 0z m37 -48 c-24 -24 -30
-10 -10 22 8 13 16 16 22 10 7 -7 3 -18 -12 -32z"/>
<path d="M6656 4067 c-21 -16 -29 -132 -10 -148 9 -7 19 2 40 40 15 28 37 57
50 65 21 14 22 14 28 -9 4 -14 4 -36 0 -49 -8 -34 4 -66 26 -66 16 0 18 8 16
74 -4 109 -32 132 -98 79 -18 -15 -27 -20 -20 -13 6 8 12 17 12 21 0 14 -28
17 -44 6z"/>
<path d="M7330 4037 c0 -13 13 -36 30 -52 29 -28 29 -29 10 -42 -21 -15 -26
-38 -11 -47 5 -3 20 3 33 14 l25 19 29 -29 c16 -16 35 -30 42 -30 21 0 13 35
-13 60 l-25 24 31 32 c20 20 29 39 26 48 -9 22 -24 20 -37 -4 -26 -48 -81 -45
-100 6 -12 31 -40 32 -40 1z"/>
<path d="M9850 4045 c-7 -8 -16 -13 -20 -10 -12 7 -26 -16 -40 -68 -11 -40
-11 -50 0 -57 21 -13 37 -1 44 31 7 34 34 79 48 79 7 0 8 -17 4 -47 -13 -83
-12 -98 4 -98 28 0 51 126 30 166 -13 23 -52 25 -70 4z"/>
<path d="M11684 4045 c-9 -24 22 -53 38 -37 9 9 10 17 2 29 -15 24 -33 27 -40
8z"/>
<path d="M8115 4039 c-4 -5 -4 -20 -1 -33 6 -24 -17 -52 -61 -75 -38 -20 -43
-14 -28 37 19 60 19 62 -4 62 -15 0 -23 -13 -35 -54 -9 -30 -13 -61 -10 -69
15 -41 113 -20 159 35 28 33 30 46 13 83 -12 27 -23 32 -33 14z"/>
<path d="M9439 4019 c-38 -41 -46 -73 -26 -115 38 -79 147 -40 147 53 0 24
-61 93 -83 93 -5 0 -22 -14 -38 -31z m75 -52 c16 -24 -9 -69 -36 -65 -31 5
-44 31 -30 62 13 29 49 31 66 3z"/>
<path d="M9620 4025 c-31 -38 -30 -126 3 -147 43 -27 131 36 125 89 -4 38 -30
36 -40 -3 -9 -38 -54 -66 -68 -44 -11 19 -2 59 18 83 14 16 14 19 2 27 -20 13
-26 12 -40 -5z"/>
<path d="M11510 4025 c-13 -15 -7 -45 8 -45 16 0 34 29 28 45 -7 19 -20 19
-36 0z"/>
<path d="M11805 3995 c-3 -8 -7 -21 -9 -28 -2 -8 0 -20 5 -28 8 -12 12 -11 24
5 8 11 15 27 15 37 0 22 -29 33 -35 14z"/>
<path d="M11684 3905 c-4 -9 -2 -21 4 -27 15 -15 44 -1 40 19 -4 23 -36 29
-44 8z"/>
<path d="M11526 3891 c-10 -16 5 -41 25 -41 20 0 23 8 13 34 -7 17 -29 21 -38
7z"/>
<path d="M11722 3758 c-19 -19 -15 -48 6 -48 19 0 46 43 35 54 -10 10 -28 7
-41 -6z"/>
<path d="M6280 3724 c-6 -14 -8 -35 -5 -47 3 -12 -6 -62 -20 -111 -14 -49 -28
-108 -32 -131 -5 -42 -4 -43 31 -60 30 -14 49 -16 99 -10 34 5 85 9 112 9 50
1 60 6 53 28 -5 14 -100 14 -192 1 l-68 -10 6 41 c4 23 12 57 17 76 l11 35 94
1 c94 1 130 12 108 34 -7 7 -43 7 -102 2 -77 -7 -92 -6 -87 6 3 8 8 31 11 52
l6 37 84 18 c46 9 94 15 108 11 29 -7 43 9 26 29 -16 20 -66 19 -147 -2 -61
-15 -66 -15 -75 0 -13 24 -27 21 -38 -9z"/>
<path d="M7850 3674 c-11 -36 -20 -71 -20 -78 0 -7 -14 -10 -40 -8 -25 3 -40
0 -40 -7 0 -6 0 -14 0 -18 -1 -5 14 -10 32 -13 31 -5 33 -7 30 -46 -4 -45 15
-74 47 -74 23 0 108 37 116 50 12 19 -26 22 -68 6 -55 -21 -57 -20 -57 7 0 35
11 43 75 53 46 7 61 13 63 28 4 17 -1 18 -57 11 -71 -8 -70 -9 -42 80 20 63
19 75 -4 75 -9 0 -22 -26 -35 -66z"/>
<path d="M11583 3704 c-8 -21 13 -42 28 -27 13 13 5 43 -11 43 -6 0 -13 -7
-17 -16z"/>
<path d="M8224 3689 c-8 -14 31 -54 45 -45 7 5 7 14 -1 31 -12 26 -32 33 -44
14z"/>
<path d="M11470 3661 c-13 -25 -13 -48 1 -57 15 -9 26 5 34 44 5 25 3 32 -9
32 -8 0 -20 -9 -26 -19z"/>
<path d="M8650 3596 c-24 -19 -47 -42 -51 -52 -13 -33 -10 -64 6 -64 9 0 19
10 24 23 5 12 25 37 44 55 l34 33 6 -46 c5 -53 39 -97 58 -78 8 8 6 19 -5 41
-9 17 -16 44 -16 61 0 71 -30 79 -100 27z"/>
<path d="M7517 3602 c-40 -44 -74 -182 -57 -228 14 -36 40 -31 41 9 1 29 16
91 18 75 2 -15 62 16 86 44 30 36 31 57 4 92 -24 31 -68 35 -92 8z m67 -39 c6
-15 -28 -63 -45 -63 -14 0 -16 40 -2 59 17 25 39 27 47 4z"/>
<path d="M8388 3573 c-59 -68 -34 -135 43 -118 58 13 78 79 33 114 -33 26 -56
27 -76 4z m62 -47 c0 -20 -27 -39 -45 -32 -13 4 -14 10 -5 26 12 23 50 27 50
6z"/>
<path d="M6624 3569 c-3 -6 5 -22 19 -36 l25 -25 -39 -35 c-22 -20 -36 -40
-32 -49 8 -21 18 -18 58 17 l35 31 44 -36 c25 -20 51 -36 59 -36 32 0 26 17
-19 56 l-47 42 36 23 c20 13 37 29 37 36 0 24 -22 24 -55 -1 -42 -32 -46 -32
-73 -1 -24 27 -37 31 -48 14z"/>
<path d="M6973 3572 c-23 -15 -44 -79 -33 -106 17 -46 95 -77 154 -62 37 9 23
36 -19 36 -38 0 -86 16 -96 32 -4 6 -2 24 3 40 9 26 13 28 44 22 27 -5 34 -3
34 10 0 28 -58 47 -87 28z"/>
<path d="M8170 3563 c0 -10 -3 -42 -6 -70 -6 -49 -5 -53 13 -53 17 0 21 9 27
60 4 33 4 65 1 70 -10 17 -35 11 -35 -7z"/>
<path d="M7179 3539 c-32 -34 -32 -52 2 -100 23 -33 97 -55 106 -32 6 16 -12
33 -38 33 -9 0 -24 9 -34 20 -18 20 -17 20 13 20 69 0 107 44 65 76 -33 25
-82 17 -114 -17z m84 -16 c-7 -2 -21 -2 -30 0 -10 3 -4 5 12 5 17 0 24 -2 18
-5z"/>
<path d="M11610 3525 c-15 -18 -6 -45 14 -45 20 0 29 16 21 40 -8 24 -18 25
-35 5z"/>
<path d="M11467 3493 c-4 -3 -7 -15 -7 -25 0 -28 34 -19 38 10 3 21 -16 31
-31 15z"/>
<path d="M11700 3481 c-14 -27 -13 -31 8 -31 21 0 42 18 42 37 0 20 -38 15
-50 -6z"/>
<path d="M11540 3412 c-23 -19 -21 -42 4 -42 18 0 49 37 41 49 -9 15 -20 14
-45 -7z"/>
<path d="M11674 3295 c-8 -32 1 -43 24 -29 22 14 22 48 0 52 -12 2 -19 -5 -24
-23z"/>
<path d="M11517 3247 c-8 -21 7 -39 26 -31 24 9 22 44 -2 44 -10 0 -21 -6 -24
-13z"/>
<path d="M11582 3248 c-15 -15 -15 -35 -2 -43 15 -9 40 14 40 36 0 21 -20 25
-38 7z"/>
<path d="M9386 3201 c-4 -5 -3 -16 0 -25 5 -12 10 -13 25 -5 10 5 19 16 19 24
0 16 -35 21 -44 6z"/>
<path d="M11021 3190 c-17 -10 -7 -40 14 -40 8 0 15 9 15 19 0 24 -12 32 -29
21z"/>
<path d="M9624 3175 c-8 -19 12 -36 33 -28 19 7 12 37 -10 41 -9 2 -20 -4 -23
-13z"/>
<path d="M9867 3173 c-12 -11 -8 -31 8 -37 17 -6 48 21 40 35 -7 10 -39 12
-48 2z"/>
<path d="M10808 3169 c-21 -12 -23 -30 -6 -47 9 -9 17 -7 35 10 13 12 23 27
23 35 0 15 -28 17 -52 2z"/>
<path d="M10051 3160 c-17 -10 -7 -40 14 -40 8 0 15 9 15 19 0 24 -12 32 -29
21z"/>
<path d="M7690 3141 c0 -11 4 -22 8 -25 14 -9 35 12 29 28 -9 23 -37 20 -37
-3z"/>
<path d="M7943 3144 c-8 -21 13 -42 28 -27 13 13 5 43 -11 43 -6 0 -13 -7 -17
-16z"/>
<path d="M11207 3135 c-20 -19 -14 -35 13 -35 26 0 32 13 17 35 -13 16 -14 16
-30 0z"/>
<path d="M7536 3124 c-9 -25 10 -41 32 -28 24 15 21 38 -4 42 -13 2 -24 -4
-28 -14z"/>
<path d="M9297 3133 c-4 -3 -7 -16 -7 -29 0 -19 5 -22 35 -22 37 0 42 7 25 39
-10 19 -40 26 -53 12z"/>
<path d="M10675 3130 c-4 -7 -3 -16 3 -22 14 -14 45 -2 40 15 -6 16 -34 21
-43 7z"/>
<path d="M11344 3118 c3 -13 6 -26 6 -30 0 -14 31 -8 36 7 7 18 -13 45 -33 45
-11 0 -14 -7 -9 -22z"/>
<path d="M5666 3114 c-19 -19 -17 -38 6 -42 19 -4 35 35 20 50 -6 6 -15 3 -26
-8z"/>
<path d="M6585 3119 c-8 -12 23 -49 42 -49 20 0 16 38 -6 50 -25 13 -28 13
-36 -1z"/>
<path d="M8552 3118 c-18 -18 -15 -53 7 -72 15 -14 20 -14 29 -3 7 8 8 17 4
21 -4 4 -7 19 -7 33 0 30 -15 39 -33 21z"/>
<path d="M8841 3117 c-18 -18 -13 -34 15 -41 32 -8 38 -4 30 22 -8 25 -30 34
-45 19z"/>
<path d="M10276 3098 c-20 -39 -21 -38 9 -38 18 0 26 7 31 24 12 51 -17 61
-40 14z"/>
<path d="M4934 2913 c1 -187 3 -211 20 -240 40 -66 132 -79 471 -67 348 12
448 11 875 -5 455 -16 2129 -8 2965 15 614 18 1135 13 1378 -12 78 -8 167 -17
197 -20 30 -2 77 -8 105 -12 27 -5 111 -9 185 -11 74 -1 176 -6 225 -11 116
-12 115 -12 115 4 0 23 35 28 113 16 87 -14 131 -11 135 11 2 13 -12 17 -80
24 -46 5 -101 9 -123 10 -22 1 -50 5 -63 9 -32 11 -57 -10 -40 -32 8 -10 8
-13 2 -9 -7 4 -110 11 -230 17 -121 5 -255 16 -299 24 -44 8 -82 13 -86 11 -3
-3 -73 2 -155 10 -259 24 -770 29 -1379 11 -833 -23 -2521 -31 -2965 -15 -418
16 -528 17 -875 5 -296 -10 -378 -3 -423 40 l-27 24 -1 193 c-2 233 0 217 -22
217 -18 0 -19 -12 -18 -207z"/>
<path d="M6847 3113 c-9 -9 12 -33 29 -33 8 0 14 9 14 20 0 19 -28 28 -43 13z"/>
<path d="M8105 3100 c-9 -28 2 -40 32 -38 32 3 42 27 18 44 -26 19 -43 17 -50
-6z"/>
<path d="M10526 3105 c-19 -19 -20 -27 -5 -42 26 -26 51 12 30 45 -6 11 -11
10 -25 -3z"/>
<path d="M11025 3110 c-8 -14 3 -30 21 -30 8 0 14 9 14 20 0 21 -24 28 -35 10z"/>
<path d="M8462 3088 c2 -12 11 -24 21 -26 14 -3 18 1 15 20 -2 12 -11 24 -21
26 -14 3 -18 -1 -15 -20z"/>
<path d="M5495 3090 c-9 -15 6 -60 21 -60 20 0 28 25 14 49 -12 22 -25 27 -35
11z"/>
<path d="M5927 3093 c-10 -9 -9 -53 1 -53 14 0 32 23 32 42 0 18 -20 25 -33
11z"/>
<path d="M6384 3086 c-3 -8 -2 -22 4 -31 8 -16 10 -16 26 0 9 10 15 22 13 29
-6 17 -36 19 -43 2z"/>
<path d="M9065 3080 c-10 -31 7 -45 34 -28 26 16 23 42 -6 46 -15 2 -23 -4
-28 -18z"/>
<path d="M9536 3091 c-9 -14 5 -42 18 -38 18 6 20 47 2 47 -8 0 -17 -4 -20 -9z"/>
<path d="M7797 3083 c-4 -3 -7 -17 -7 -30 0 -16 6 -23 20 -23 16 0 20 7 20 30
0 28 -17 40 -33 23z"/>
<path d="M9632 3078 c-15 -15 -15 -35 -2 -43 15 -9 40 14 40 36 0 21 -20 25
-38 7z"/>
<path d="M7081 3058 c-9 -25 -4 -48 10 -48 11 0 29 34 29 54 0 24 -30 19 -39
-6z"/>
<path d="M11601 3071 c-18 -11 -10 -45 12 -49 12 -3 17 3 17 22 0 29 -10 38
-29 27z"/>
<path d="M7731 3057 c-13 -17 -4 -50 13 -44 15 5 20 37 9 48 -6 6 -14 4 -22
-4z"/>
<path d="M7350 3041 c0 -19 23 -35 34 -24 14 15 5 43 -14 43 -13 0 -20 -7 -20
-19z"/>
<path d="M8283 3053 c-18 -7 -16 -43 2 -43 18 0 31 28 19 39 -5 5 -15 6 -21 4z"/>
<path d="M6467 3038 c-7 -20 12 -50 26 -41 7 4 17 8 22 8 6 0 10 9 10 20 0 23
-50 35 -58 13z"/>
<path d="M6688 3028 c-8 -24 4 -48 24 -48 15 0 19 6 16 27 -3 29 -33 44 -40
21z"/>
<path d="M5110 3010 c0 -15 5 -20 18 -18 9 2 17 10 17 18 0 8 -8 16 -17 18
-13 2 -18 -3 -18 -18z"/>
<path d="M5216 3021 c-3 -5 3 -20 13 -32 18 -22 20 -22 26 -6 13 33 -22 67
-39 38z"/>
<path d="M6156 3014 c-9 -23 -8 -24 12 -24 26 0 34 11 21 27 -15 17 -26 17
-33 -3z"/>
<path d="M8687 3024 c-12 -12 -8 -54 6 -54 22 0 39 17 35 36 -3 19 -29 30 -41
18z"/>
<path d="M7887 3006 c-7 -16 1 -26 20 -26 7 0 13 9 13 20 0 23 -25 27 -33 6z"/>
<path d="M10506 3004 c-7 -19 1 -34 19 -34 15 0 28 27 19 41 -9 14 -31 10 -38
-7z"/>
<path d="M8059 2983 c-12 -33 9 -52 29 -26 16 23 15 40 -3 47 -11 4 -19 -3
-26 -21z"/>
<path d="M9407 3003 c-13 -12 -7 -63 6 -63 33 0 51 53 21 64 -19 7 -19 7 -27
-1z"/>
<path d="M5770 2983 c0 -22 18 -43 38 -43 9 0 12 9 10 28 -4 33 -48 47 -48 15z"/>
<path d="M7500 2981 c-16 -31 -12 -38 21 -43 19 -3 36 1 46 11 14 13 13 17 -7
33 -29 23 -47 23 -60 -1z"/>
<path d="M8164 2985 c-7 -18 3 -35 22 -35 8 0 14 10 14 25 0 27 -27 35 -36 10z"/>
<path d="M8484 2985 c-8 -20 4 -35 27 -35 23 0 26 35 3 44 -22 8 -24 8 -30 -9z"/>
<path d="M9725 2990 c-10 -16 14 -50 30 -44 18 7 18 10 5 35 -12 21 -25 25
-35 9z"/>
<path d="M10855 2970 c-8 -37 0 -48 23 -34 22 14 22 58 0 62 -11 2 -18 -6 -23
-28z"/>
<path d="M10976 2971 c-16 -29 -13 -41 11 -41 16 0 33 39 26 58 -8 20 -21 14
-37 -17z"/>
<path d="M11504 2985 c-4 -8 -3 -22 0 -31 5 -13 9 -14 21 -4 8 7 15 21 15 31
0 23 -28 25 -36 4z"/>
<path d="M9257 2984 c-16 -16 -6 -34 19 -34 19 0 25 5 22 17 -3 19 -29 29 -41
17z"/>
<path d="M11187 2984 c-10 -10 -9 -52 2 -58 13 -8 33 20 29 40 -3 19 -20 28
-31 18z"/>
<path d="M6783 2966 c-7 -11 25 -36 47 -36 19 0 40 19 40 36 0 14 -79 14 -87
0z"/>
<path d="M8254 2969 c-8 -14 16 -61 30 -56 16 5 19 36 6 52 -15 18 -26 19 -36
4z"/>
<path d="M11293 2964 c-8 -21 13 -42 28 -27 13 13 5 43 -11 43 -6 0 -13 -7
-17 -16z"/>
<path d="M5534 2959 c-3 -6 0 -17 8 -25 13 -13 16 -13 28 1 12 14 11 18 -1 26
-19 12 -26 11 -35 -2z"/>
<path d="M6074 2955 c-9 -21 3 -45 21 -45 10 0 15 10 15 30 0 32 -26 43 -36
15z"/>
<path d="M7050 2950 c-9 -16 -8 -22 5 -26 21 -8 39 10 32 30 -9 22 -24 20 -37
-4z"/>
<path d="M7207 2963 c-4 -3 -7 -17 -7 -30 0 -26 34 -33 43 -9 6 16 -26 50 -36
39z"/>
<path d="M8961 2952 c-12 -23 1 -45 22 -36 21 8 23 54 2 54 -8 0 -19 -8 -24
-18z"/>
<path d="M9582 2953 c2 -11 14 -19 31 -21 23 -3 28 0 25 15 -2 11 -14 19 -31
21 -23 3 -28 0 -25 -15z"/>
<path d="M10044 2955 c-7 -18 12 -45 32 -45 18 0 26 17 19 40 -7 23 -43 27
-51 5z"/>
<path d="M5165 2947 c-15 -12 -15 -14 -1 -26 17 -15 48 -11 53 6 7 20 -32 34
-52 20z"/>
<path d="M5925 2951 c-8 -15 3 -31 21 -31 9 0 14 7 12 17 -4 20 -24 28 -33 14z"/>
<path d="M6559 2939 c-8 -15 -8 -24 0 -32 15 -15 46 16 38 37 -9 22 -24 20
-38 -5z"/>
<path d="M8764 2949 c-3 -6 1 -18 9 -27 13 -13 19 -13 32 -2 12 10 13 16 4 26
-14 17 -35 18 -45 3z"/>
<path d="M5430 2925 c0 -15 6 -25 14 -25 19 0 28 14 20 34 -10 25 -34 19 -34
-9z"/>
<path d="M7576 2935 c-7 -20 3 -45 19 -45 21 0 27 17 15 40 -13 24 -26 26 -34
5z"/>
<path d="M9904 2939 c-8 -14 11 -33 25 -25 6 4 11 14 11 22 0 16 -26 19 -36 3z"/>
<path d="M10213 2934 c-8 -21 13 -42 28 -27 13 13 5 43 -11 43 -6 0 -13 -7
-17 -16z"/>
<path d="M9091 2927 c-6 -6 -11 -19 -11 -28 0 -21 16 -34 24 -20 3 5 15 7 26
4 15 -4 20 0 20 14 0 25 -42 47 -59 30z"/>
<path d="M10657 2933 c-13 -12 -7 -41 8 -47 16 -6 38 31 28 47 -5 9 -27 9 -36
0z"/>
<path d="M6377 2924 c-15 -15 -7 -45 11 -42 9 2 17 12 17 22 0 20 -16 31 -28
20z"/>
<path d="M7312 2913 c2 -10 10 -18 18 -18 22 0 18 29 -3 33 -14 3 -18 -1 -15
-15z"/>
<path d="M10405 2920 c-10 -16 16 -43 28 -31 11 11 2 41 -12 41 -5 0 -13 -5
-16 -10z"/>
<path d="M5596 2907 c-16 -12 -16 -14 3 -31 17 -15 23 -16 36 -6 20 17 19 27
-4 39 -13 7 -23 6 -35 -2z"/>
<path d="M6294 2905 c-3 -8 -3 -19 1 -25 9 -14 45 6 45 25 0 19 -39 19 -46 0z"/>
<path d="M7710 2895 c-16 -19 -9 -59 13 -63 13 -3 17 4 17 32 0 40 -12 53 -30
31z"/>
<path d="M8554 2885 c-7 -18 3 -35 21 -35 18 0 28 32 13 42 -19 11 -28 10 -34
-7z"/>
<path d="M7811 2871 c-8 -13 -7 -22 2 -29 17 -14 52 12 44 33 -9 21 -34 19
-46 -4z"/>
<path d="M8427 2872 c-22 -24 -21 -42 1 -42 23 0 42 19 42 42 0 23 -22 23 -43
0z"/>
<path d="M9624 2865 c-7 -18 12 -45 32 -45 17 0 18 32 2 48 -16 16 -27 15 -34
-3z"/>
<path d="M5822 2854 c-41 -28 -21 -61 25 -40 26 12 29 28 10 44 -10 9 -19 7
-35 -4z"/>
<path d="M6920 2851 c0 -12 6 -21 16 -21 9 0 14 7 12 17 -5 25 -28 28 -28 4z"/>
<path d="M10455 2850 c-8 -26 7 -45 30 -36 21 8 16 50 -7 54 -10 2 -19 -5 -23
-18z"/>
<path d="M11618 2865 c-3 -3 -3 -15 -1 -26 7 -26 38 -21 38 6 0 19 -25 32 -37
20z"/>
<path d="M5213 2844 c-7 -18 17 -38 31 -24 11 11 1 40 -14 40 -6 0 -13 -7 -17
-16z"/>
<path d="M7924 2846 c-8 -21 -1 -49 13 -53 15 -5 35 31 27 51 -8 20 -33 21
-40 2z"/>
<path d="M8727 2853 c-3 -4 -3 -21 0 -36 4 -22 10 -27 27 -25 28 4 28 36 -1
55 -11 8 -23 11 -26 6z"/>
<path d="M10842 2848 c-20 -20 -14 -38 13 -38 20 0 25 5 25 25 0 27 -18 33
-38 13z"/>
<path d="M11016 2834 c-10 -27 -7 -34 18 -34 30 0 42 16 26 35 -16 20 -36 19
-44 -1z"/>
<path d="M5073 2824 c-7 -18 17 -38 31 -24 11 11 1 40 -14 40 -6 0 -13 -7 -17
-16z"/>
<path d="M7170 2816 c0 -31 14 -40 30 -21 15 18 6 45 -15 45 -9 0 -15 -9 -15
-24z"/>
<path d="M9872 2828 c-18 -18 -14 -38 7 -38 22 0 45 25 36 40 -8 13 -28 13
-43 -2z"/>
<path d="M5537 2824 c-14 -14 -7 -35 11 -32 9 2 17 10 17 17 0 16 -18 25 -28
15z"/>
<path d="M7345 2820 c-8 -14 3 -30 21 -30 8 0 14 9 14 20 0 21 -24 28 -35 10z"/>
<path d="M11495 2820 c-9 -15 4 -30 26 -30 23 0 26 25 3 34 -21 8 -22 8 -29
-4z"/>
<path d="M6000 2808 c1 -21 28 -51 39 -43 6 3 11 17 11 31 0 19 -5 24 -25 24
-14 0 -25 -6 -25 -12z"/>
<path d="M8449 2809 c-12 -7 -11 -11 3 -25 18 -18 48 -13 48 10 0 17 -33 27
-51 15z"/>
<path d="M8950 2805 c-14 -17 -10 -47 7 -52 15 -5 36 34 29 53 -7 18 -20 18
-36 -1z"/>
<path d="M7504 2796 c-7 -19 3 -36 22 -36 10 0 14 8 12 22 -4 26 -26 36 -34
14z"/>
<path d="M9256 2802 c-8 -13 17 -62 31 -62 16 0 34 33 25 47 -10 15 -49 26
-56 15z"/>
<path d="M9406 2788 c-3 -13 -1 -27 4 -32 14 -14 44 18 37 38 -9 23 -34 19
-41 -6z"/>
<path d="M10015 2790 c-8 -24 11 -60 30 -60 16 0 20 35 9 64 -9 22 -31 20 -39
-4z"/>
<path d="M10202 2788 c5 -34 38 -37 38 -4 0 20 -5 26 -21 26 -15 0 -20 -5 -17
-22z"/>
<path d="M5242 2788 c-15 -15 -15 -35 -2 -43 17 -10 60 23 54 40 -7 18 -35 20
-52 3z"/>
<path d="M6313 2788 c-28 -13 -30 -38 -4 -38 33 0 51 11 51 31 0 21 -14 23
-47 7z"/>
<path d="M6710 2780 c-9 -16 -8 -22 5 -26 18 -7 45 12 45 32 0 21 -38 17 -50
-6z"/>
<path d="M10660 2781 c0 -21 26 -36 36 -20 9 15 -3 39 -21 39 -8 0 -15 -9 -15
-19z"/>
<path d="M11293 2793 c-16 -6 -17 -29 -3 -38 6 -3 19 -3 30 0 16 5 18 10 10
26 -11 19 -16 21 -37 12z"/>
<path d="M6626 2774 c-4 -10 -2 -22 3 -27 14 -14 43 0 39 20 -4 24 -34 28 -42
7z"/>
<path d="M7671 2758 c-8 -23 -4 -48 8 -48 14 0 42 43 37 56 -8 22 -36 17 -45
-8z"/>
<path d="M8154 2765 c-7 -18 3 -35 21 -35 21 0 28 19 15 35 -16 19 -29 19 -36
0z"/>
<path d="M9095 2770 c-14 -22 32 -54 55 -40 12 7 11 12 -4 29 -21 23 -41 27
-51 11z"/>
<path d="M8345 2746 c-16 -12 -17 -16 -6 -30 12 -14 15 -14 37 1 19 12 22 19
13 29 -14 17 -20 17 -44 0z"/>
<path d="M9736 2743 c-9 -22 10 -41 25 -26 13 13 5 43 -10 43 -5 0 -12 -8 -15
-17z"/>
<path d="M6950 2735 c0 -21 30 -31 40 -14 11 17 3 29 -21 29 -10 0 -19 -7 -19
-15z"/>
<path d="M3142 2160 c-49 -30 -205 -164 -250 -215 -44 -50 -105 -167 -124
-239 -19 -70 0 -130 57 -183 107 -98 277 -73 427 63 75 69 85 82 64 90 -10 4
-38 -14 -78 -51 -73 -66 -130 -98 -210 -115 -131 -29 -240 52 -224 167 3 25
24 82 46 128 42 85 98 149 220 249 60 49 69 45 51 -21 -20 -70 19 -71 69 -2
34 47 56 109 47 133 -9 22 -55 20 -95 -4z m46 -52 c-12 -33 -12 -33 -18 -8 -4
14 -2 28 4 32 21 15 25 8 14 -24z"/>
<path d="M4979 2148 c-1 -7 -1 -20 0 -29 2 -19 -139 -449 -164 -504 -15 -31
-16 -38 -4 -46 16 -10 63 36 139 137 l45 59 3 -36 c2 -20 -6 -64 -17 -97 -25
-73 -26 -95 -6 -112 20 -17 29 -6 31 33 1 18 9 57 18 87 19 64 21 131 4 148
-21 21 -41 13 -86 -30 -52 -50 -54 -67 25 174 55 170 62 220 31 226 -10 2 -19
-2 -19 -10z"/>
<path d="M14430 2123 c-37 -46 -54 -101 -81 -258 -11 -66 -22 -121 -24 -123
-2 -2 -31 -7 -64 -11 -67 -8 -76 -13 -67 -36 3 -10 14 -14 28 -11 13 3 42 7
66 11 38 5 43 3 39 -12 -3 -10 -10 -90 -17 -178 -6 -88 -16 -171 -21 -184 -13
-33 5 -52 27 -29 12 12 19 47 26 120 18 219 25 289 31 294 3 3 43 8 89 11 107
6 114 8 97 29 -11 14 -28 16 -102 11 -79 -5 -87 -4 -83 11 2 9 8 42 11 72 12
99 44 212 71 247 24 32 57 43 69 23 9 -15 45 -12 45 4 0 20 -45 46 -79 46 -22
0 -37 -10 -61 -37z"/>
<path d="M9846 2124 c-9 -9 -35 -53 -57 -98 -22 -44 -59 -109 -82 -144 -37
-54 -45 -62 -66 -57 -29 7 -44 -11 -28 -36 10 -16 4 -27 -43 -75 -30 -31 -65
-60 -77 -65 -14 -5 -23 -17 -23 -29 0 -14 7 -20 23 -20 15 0 48 27 103 85 l81
85 56 0 56 0 -21 -60 c-11 -33 -17 -68 -14 -77 10 -25 25 -4 55 74 l26 68 43
-3 c33 -3 42 0 42 12 0 10 -12 19 -30 23 -34 6 -33 4 -21 69 5 27 11 96 13
153 3 109 -4 128 -36 95z m-16 -235 c-11 -66 -13 -69 -45 -75 -18 -3 -42 -4
-53 -2 -20 3 -19 6 16 59 21 31 49 81 62 110 l25 53 3 -38 c2 -21 -2 -69 -8
-107z"/>
<path d="M16104 2095 c-4 -8 -4 -44 0 -78 3 -34 8 -111 12 -172 5 -95 4 -108
-8 -92 -10 14 -24 18 -53 15 -35 -3 -44 -9 -72 -53 -35 -53 -45 -119 -21 -143
21 -21 73 -14 115 17 59 43 78 99 77 226 0 169 -12 278 -29 288 -10 5 -17 3
-21 -8z m6 -375 c0 -46 -63 -120 -101 -120 -28 0 -24 47 6 93 21 31 32 37 60
37 19 0 35 -5 35 -10z"/>
<path d="M3566 2084 c-3 -9 -6 -27 -6 -40 0 -36 -68 -266 -101 -345 -31 -74
-38 -139 -15 -139 15 0 26 21 26 49 0 9 14 50 31 91 34 80 109 341 109 377 0
27 -34 32 -44 7z"/>
<path d="M6817 2093 c-2 -4 -8 -30 -12 -58 -12 -82 -54 -217 -86 -272 -30 -52
-35 -93 -12 -100 6 -2 31 22 54 54 47 63 79 94 91 86 14 -8 8 -43 -13 -84 -20
-40 -20 -69 1 -69 16 0 60 97 60 133 0 51 -39 75 -83 52 l-25 -13 14 46 c26
85 45 174 42 200 -3 25 -22 40 -31 25z"/>
<path d="M11470 2084 c-25 -2 -103 -13 -174 -25 -100 -16 -160 -20 -263 -17
-105 3 -133 1 -133 -9 0 -26 54 -34 193 -31 117 3 137 1 137 -12 -1 -8 -10
-55 -21 -105 -35 -159 -37 -168 -32 -182 18 -47 51 48 85 247 l12 68 90 13
c50 7 139 12 199 12 81 -1 107 2 107 12 0 7 -6 15 -13 18 -21 8 -138 15 -187
11z"/>
<path d="M13693 2023 c-12 -38 -25 -86 -29 -108 -12 -73 -19 -78 -85 -72 -52
4 -59 3 -59 -13 0 -22 19 -30 77 -30 l45 0 -2 -42 c-5 -79 0 -97 31 -132 32
-37 79 -53 124 -42 43 11 31 36 -18 36 -77 0 -110 48 -98 140 l6 45 87 1 c49
0 91 4 95 8 18 18 -33 36 -103 36 l-72 0 18 83 c10 45 23 95 29 110 15 39 14
47 -7 47 -14 0 -23 -17 -39 -67z"/>
<path d="M8681 2055 c-30 -26 -51 -73 -117 -262 -27 -79 -30 -83 -59 -84 -46
-1 -100 -24 -104 -44 -2 -15 2 -17 28 -11 17 3 44 9 60 12 l29 6 -19 -68 c-10
-38 -25 -94 -33 -125 -9 -30 -29 -75 -46 -100 -31 -45 -40 -84 -17 -77 26 9
78 92 96 156 11 37 30 102 42 144 l22 77 41 6 c59 9 76 9 119 0 30 -6 37 -4
37 9 0 8 -10 20 -21 27 -22 11 -107 14 -138 4 -16 -5 -13 11 25 122 61 176 86
208 146 185 41 -15 59 4 27 31 -31 25 -82 22 -118 -8z"/>
<path d="M11977 2063 c-3 -5 -8 -42 -11 -83 -4 -41 -9 -100 -12 -130 l-5 -56
-32 4 c-41 5 -87 -29 -87 -63 0 -63 51 -105 103 -86 15 6 31 21 36 33 11 27
31 184 31 249 1 24 7 61 14 81 9 26 10 40 3 47 -13 13 -34 14 -40 4z m-39
-334 c6 -50 -52 -63 -64 -13 -8 32 3 46 34 42 21 -2 28 -9 30 -29z"/>
<path d="M14883 2051 c-31 -10 -58 -14 -67 -9 -47 26 -70 -43 -64 -192 3 -58
1 -132 -2 -165 -5 -41 -8 -49 -9 -24 0 20 -4 39 -8 42 -13 13 -33 -16 -33 -48
0 -47 43 -87 129 -118 110 -41 159 -44 224 -14 71 32 88 58 90 141 2 83 -17
112 -99 144 -32 13 -68 26 -78 31 -17 6 -15 10 17 28 51 31 72 76 58 124 -13
42 -53 79 -85 79 -11 -1 -44 -9 -73 -19z m94 -29 c6 -4 17 -20 23 -36 13 -36
-3 -64 -57 -97 -28 -17 -54 -24 -96 -25 l-58 -1 3 56 3 56 70 27 c74 29 93 32
112 20z m12 -236 c100 -34 117 -51 114 -122 -2 -64 -13 -80 -68 -105 -53 -24
-69 -24 -165 6 l-80 26 2 117 3 118 60 -7 c33 -4 93 -19 134 -33z"/>
<path d="M16825 2036 c-127 -22 -130 -23 -127 -47 2 -13 8 -25 13 -27 14 -6
10 -81 -11 -207 -11 -64 -20 -135 -20 -157 0 -32 -4 -41 -20 -45 -27 -7 -22
-39 5 -36 28 4 251 42 304 52 25 5 50 7 57 4 19 -7 34 5 28 22 -9 22 -30 25
-87 14 -74 -14 -220 -39 -234 -39 -16 0 -16 63 1 150 11 57 15 65 36 68 14 2
57 12 97 22 42 12 85 17 103 14 24 -5 30 -3 30 10 0 34 -43 40 -132 17 -120
-30 -115 -32 -111 42 2 34 5 69 6 76 2 16 172 49 260 50 41 1 48 4 45 19 -5
25 -86 25 -243 -2z"/>
<path d="M12920 2005 c-18 -22 -2 -37 33 -30 28 5 30 4 12 -6 -87 -52 -155
-144 -155 -209 0 -102 125 -166 251 -128 46 13 113 68 134 109 32 62 6 138
-76 217 -52 51 -172 80 -199 47z m122 -85 c17 -27 36 -25 40 3 3 19 7 16 41
-27 21 -27 40 -60 43 -73 26 -103 -133 -198 -250 -149 -97 40 -82 146 33 233
49 38 76 41 93 13z"/>
<path d="M17815 1924 c-11 -27 -12 -40 -4 -50 16 -19 1 -23 -96 -26 -63 -2
-80 -6 -80 -18 0 -12 17 -15 93 -15 80 0 92 -2 92 -17 0 -9 -4 -20 -10 -23
-15 -10 -12 -42 5 -49 9 -3 18 1 21 9 4 8 12 15 20 15 7 0 19 9 27 20 8 12 38
25 77 34 68 16 96 35 87 60 -7 18 -61 42 -115 52 -20 3 -51 15 -69 26 l-32 19
-16 -37z m159 -75 c-30 -12 -37 -10 -24 5 6 8 19 12 27 9 14 -6 14 -8 -3 -14z
m-61 -16 c-7 -2 -19 -2 -25 0 -7 3 -2 5 12 5 14 0 19 -2 13 -5z"/>
<path d="M5291 1886 c-17 -20 -10 -50 12 -54 12 -3 17 3 17 22 0 14 0 29 1 33
1 14 -18 13 -30 -1z"/>
<path d="M4140 1833 c-33 -12 -60 -47 -60 -78 0 -22 10 -40 35 -65 19 -19 35
-42 35 -51 0 -20 -49 -40 -79 -32 -28 7 -28 -22 0 -37 15 -8 29 -8 52 -1 76
27 88 79 32 135 -19 20 -35 44 -35 54 0 23 40 43 69 35 16 -4 21 -1 21 15 0
27 -32 39 -70 25z"/>
<path d="M16360 1822 c-49 -27 -58 -46 -35 -73 11 -12 36 -28 55 -36 57 -24
62 -31 44 -64 -19 -37 -61 -39 -119 -6 -45 26 -65 25 -65 -2 0 -13 17 -25 56
-40 97 -37 140 -26 169 43 20 47 8 71 -50 96 -52 22 -62 36 -36 50 15 8 29 7
55 -4 19 -8 37 -12 40 -8 15 14 3 34 -29 48 -43 18 -43 18 -85 -4z"/>
<path d="M7185 1750 l-60 -81 -26 58 c-29 65 -51 88 -75 79 -15 -6 -15 -8 -1
-24 9 -10 29 -45 44 -77 15 -33 29 -63 31 -67 2 -4 -27 -40 -64 -80 -122 -133
-162 -204 -130 -236 14 -14 16 -14 21 4 19 59 50 107 112 174 87 94 246 308
238 320 -13 21 -33 6 -90 -70z"/>
<path d="M12153 1819 c-61 -22 -86 -137 -39 -184 13 -13 40 -27 60 -30 76 -15
198 17 171 44 -7 6 -24 7 -50 1 -61 -14 -118 -12 -144 6 l-24 17 48 18 c51 19
85 45 85 64 0 21 -39 62 -63 67 -13 3 -33 1 -44 -3z m61 -58 c6 -9 -52 -41
-73 -41 -18 0 -13 22 10 46 21 23 48 21 63 -5z"/>
<path d="M9998 1808 c-30 -25 -91 -156 -84 -182 4 -17 11 -23 21 -20 8 4 15
12 15 18 0 7 9 31 20 54 11 22 20 45 20 49 0 4 7 16 15 27 13 18 15 18 41 -3
49 -39 62 2 13 43 -35 30 -39 31 -61 14z"/>
<path d="M15750 1795 c-33 -12 -36 -16 -43 -70 -10 -69 -4 -93 18 -75 8 7 15
21 15 32 0 44 57 105 78 83 4 -4 6 -42 5 -85 -3 -76 9 -110 27 -80 14 22 20
124 10 159 -15 53 -40 61 -110 36z"/>
<path d="M3886 1779 c-35 -27 -35 -76 -1 -117 14 -17 25 -37 25 -46 0 -19 -5
-20 -31 -5 -25 13 -51 5 -43 -15 9 -24 61 -40 89 -28 35 16 35 79 0 112 -43
40 -27 80 32 80 22 0 33 5 33 14 0 31 -66 35 -104 5z"/>
<path d="M6404 1765 c-55 -58 -58 -135 -6 -153 38 -13 116 7 120 32 3 16 -1
17 -40 11 -47 -8 -48 -8 -65 -6 -21 2 -15 42 13 78 19 26 32 33 58 33 18 0 36
3 39 7 14 13 -17 33 -51 33 -27 0 -42 -8 -68 -35z"/>
<path d="M10170 1789 c-60 -24 -97 -86 -86 -143 7 -38 39 -57 60 -36 8 8 7 15
-6 24 -33 24 -13 88 34 112 25 13 29 13 40 -6 15 -24 48 -27 48 -5 0 17 -43
65 -57 64 -4 0 -19 -5 -33 -10z"/>
<path d="M10339 1761 c-42 -42 -49 -70 -22 -96 12 -13 28 -16 58 -12 33 3 44
0 54 -14 12 -20 41 -26 41 -9 0 14 -33 84 -44 91 -5 4 -5 12 -1 18 4 7 4 23 1
37 -9 36 -42 30 -87 -15z m45 -25 c-3 -8 0 -17 5 -21 17 -10 3 -25 -25 -25
-30 0 -30 7 -2 37 25 27 29 28 22 9z"/>
<path d="M10699 1721 c-29 -45 -54 -81 -58 -81 -3 0 -22 25 -41 55 -19 30 -40
62 -46 72 -7 10 -18 14 -28 10 -16 -6 -16 -9 0 -39 9 -18 32 -55 51 -82 18
-26 33 -51 33 -55 0 -4 -24 -38 -53 -75 -67 -84 -82 -110 -72 -133 8 -20 -1
-29 105 107 82 107 180 254 180 272 0 41 -24 24 -71 -51z"/>
<path d="M11640 1785 c-17 -9 -29 -10 -37 -3 -17 13 -47 2 -40 -16 3 -7 1 -34
-5 -60 -10 -47 -3 -72 17 -58 6 4 23 26 38 50 48 74 96 80 97 12 1 -28 21 -60
38 -60 17 0 25 19 14 33 -5 7 -13 31 -17 55 -10 60 -50 78 -105 47z"/>
<path d="M6189 1763 c-46 -49 -61 -101 -43 -147 16 -42 51 0 39 47 -5 19 1 33
23 58 l29 33 26 -29 c23 -27 26 -28 33 -12 9 25 -26 71 -57 75 -16 2 -33 -6
-50 -25z"/>
<path d="M15477 1783 c-12 -19 -18 -100 -9 -124 11 -29 85 -71 108 -62 42 16
74 163 39 176 -19 8 -30 -11 -26 -46 2 -25 -15 -87 -25 -87 -16 0 -55 27 -59
41 -9 26 5 69 22 69 8 0 13 7 11 18 -3 18 -52 30 -61 15z"/>
<path d="M5400 1773 c-45 -16 -90 -83 -90 -132 0 -41 49 -81 100 -81 68 0 190
52 190 81 0 24 -4 24 -54 -1 -92 -43 -179 -50 -193 -15 -13 37 42 119 75 113
30 -6 22 -25 -18 -41 -29 -11 -40 -21 -40 -36 0 -26 6 -26 53 -2 74 38 84 61
44 99 -23 22 -39 25 -67 15z"/>
<path d="M5734 1755 c-14 -14 -29 -23 -33 -21 -4 3 -13 1 -20 -3 -10 -7 -10
-12 -1 -28 10 -15 9 -32 -4 -83 -11 -44 -13 -67 -6 -74 16 -16 35 12 54 84 9
36 24 75 32 88 15 23 48 30 59 12 10 -17 35 -11 35 8 0 48 -74 58 -116 17z"/>
<path d="M3648 1750 c-50 -30 -76 -130 -38 -150 23 -12 64 -4 81 16 10 12 14
11 26 -6 8 -11 21 -20 29 -20 12 0 13 8 8 38 -4 20 -8 47 -8 60 -1 13 -9 29
-18 36 -10 7 -18 18 -18 25 0 13 -39 14 -62 1z m27 -90 c-16 -16 -32 -30 -37
-30 -16 0 -8 38 13 64 20 25 23 26 37 12 15 -14 13 -19 -13 -46z"/>
<path d="M12400 1742 c0 -9 12 -35 26 -56 30 -43 32 -38 -31 -81 -19 -12 -19
-14 -3 -31 16 -16 19 -15 53 15 33 29 39 31 54 18 33 -29 123 -69 133 -59 15
15 2 30 -45 53 -70 36 -71 38 -28 69 48 35 57 48 37 56 -9 4 -36 -7 -63 -24
l-47 -31 -23 32 c-44 62 -63 74 -63 39z"/>
<path d="M13270 1724 c-24 -70 23 -122 100 -111 60 8 92 41 88 92 -2 29 -8 41
-20 43 -14 3 -18 -4 -18 -31 0 -42 -25 -67 -68 -67 -21 0 -35 7 -42 21 -14 25
-6 49 15 49 8 0 15 9 15 20 0 15 -7 20 -29 20 -25 0 -31 -6 -41 -36z"/>
<path d="M15264 1753 c-35 -7 -47 -110 -18 -151 31 -45 144 -20 144 32 0 37
-80 134 -102 125 -2 -1 -13 -4 -24 -6z m83 -118 c-2 -5 -20 -11 -40 -13 -37
-3 -37 -3 -37 37 0 22 5 41 13 44 14 6 69 -52 64 -68z"/>
<path d="M17161 1746 c-10 -11 -3 -21 34 -47 25 -18 45 -36 45 -40 0 -4 -19
-12 -42 -16 -35 -7 -47 -15 -65 -48 -23 -40 -27 -81 -8 -79 6 0 20 17 31 38
17 31 32 42 75 57 l54 19 62 -66 c43 -46 67 -64 78 -60 15 5 14 9 -3 33 -11
16 -39 46 -61 68 -23 21 -41 42 -41 46 0 4 16 16 35 28 43 25 49 61 10 61 -14
0 -25 -6 -25 -13 0 -7 -13 -20 -28 -29 -28 -17 -29 -16 -63 11 -54 44 -75 53
-88 37z"/>
<path d="M5939 1718 c-39 -43 -70 -103 -63 -122 13 -34 87 -31 120 5 18 19 18
19 28 -13 6 -19 19 -34 30 -36 16 -3 18 0 12 25 -4 15 -9 48 -13 73 -3 25 -9
47 -12 50 -3 3 -11 14 -17 25 -18 33 -50 30 -85 -7z m41 -73 c-32 -33 -60 -45
-60 -27 0 5 14 28 31 52 28 39 32 41 47 26 15 -15 13 -19 -18 -51z"/>
<path d="M5221 1718 c-27 -76 -44 -159 -33 -170 8 -8 15 -8 21 -2 13 14 53
165 47 181 -8 20 -26 16 -35 -9z"/>
<path d="M8203 1733 c-35 -7 -83 -68 -83 -107 0 -38 14 -53 56 -62 42 -8 98
31 102 71 4 37 -24 106 -41 104 -6 -1 -22 -4 -34 -6z m12 -52 c-3 -5 2 -16 10
-24 22 -22 19 -36 -10 -47 -52 -20 -73 17 -35 58 20 21 47 31 35 13z"/>
<path d="M14010 1691 c-21 -21 -27 -34 -23 -52 14 -59 63 -76 101 -36 26 27
28 64 6 95 -21 30 -50 28 -84 -7z m55 -46 c0 -11 -8 -21 -17 -23 -14 -3 -18 3
-18 23 0 20 4 26 18 23 9 -2 17 -12 17 -23z"/>
<path d="M10953 1683 c-41 -29 71 -46 317 -49 85 -1 166 -4 180 -5 17 -3 25 1
28 13 5 25 -84 39 -234 36 -71 -2 -163 1 -204 5 -41 4 -80 4 -87 0z"/>
<path d="M11197 1467 c-15 -12 -87 -164 -87 -186 0 -6 -9 -11 -20 -11 -20 0
-28 -24 -11 -34 5 -3 6 -34 4 -69 -5 -61 -5 -64 27 -90 24 -21 42 -27 77 -27
56 0 113 26 113 51 0 23 -9 24 -46 4 -36 -19 -94 -19 -119 -2 -15 11 -17 23
-13 66 3 28 8 55 12 59 4 4 49 7 99 7 72 1 92 4 92 15 0 19 -58 32 -122 28
-61 -4 -61 -9 -8 108 33 73 34 106 2 81z"/>
<path d="M11524 1315 c-8 -20 4 -35 26 -35 26 0 33 16 14 34 -19 20 -33 20
-40 1z"/>
<path d="M9436 1294 c-3 -9 -6 -37 -6 -64 l0 -47 -90 5 c-49 2 -152 -1 -227
-7 -76 -7 -171 -12 -211 -13 -79 -2 -108 -17 -81 -43 11 -10 26 -11 64 -5 67
12 322 30 411 30 77 0 134 -8 134 -19 0 -4 -18 -17 -39 -29 -33 -19 -51 -39
-51 -58 0 -21 104 19 129 50 10 12 130 63 214 90 9 3 17 12 17 20 0 15 -29 25
-110 41 -19 4 -45 13 -57 21 -12 8 -29 14 -37 14 -7 0 -16 7 -20 15 -7 20 -32
19 -40 -1z"/>
<path d="M11486 1222 c-9 -14 -11 -120 -3 -128 16 -16 30 17 31 72 1 53 -13
80 -28 56z"/>
<path d="M12017 1196 c-26 -19 -57 -46 -69 -61 -19 -24 -19 -28 -5 -42 13 -14
20 -10 65 37 28 29 55 49 60 46 5 -3 13 -27 17 -53 7 -54 28 -93 50 -93 22 0
28 20 12 38 -8 9 -20 44 -27 77 -20 97 -31 102 -103 51z"/>
<path d="M10067 1202 c-39 -27 -56 -53 -57 -88 0 -63 66 -114 148 -114 53 0
63 5 55 26 -3 9 -21 14 -50 14 -55 0 -101 23 -109 55 -8 33 -1 50 31 71 22 14
32 16 57 6 24 -9 30 -8 35 4 16 41 -59 59 -110 26z"/>
<path d="M11721 1194 c-29 -37 -27 -78 5 -103 32 -25 64 -27 104 -6 53 27 35
87 -37 124 -33 17 -50 13 -72 -15z m99 -59 c0 -17 -34 -28 -60 -20 -32 10 -24
33 13 37 39 4 47 1 47 -17z"/>
<path d="M10368 1162 c-18 -16 -41 -31 -50 -35 -18 -6 -26 -37 -10 -37 5 0 14
-11 20 -25 16 -36 105 -60 180 -48 41 6 58 13 60 25 3 14 -7 16 -80 15 -57 -1
-91 3 -108 13 l-25 14 43 8 c50 8 114 38 119 54 4 13 -60 44 -92 44 -13 0 -39
-13 -57 -28z m82 -16 c0 -2 -11 -6 -25 -8 -13 -3 -22 -1 -19 3 5 9 44 13 44 5z"/>
<path d="M10781 1163 c-15 -16 -35 -27 -44 -25 -15 3 -17 -7 -17 -82 0 -46 -5
-107 -12 -135 -13 -58 -4 -77 30 -66 29 8 36 37 33 124 -3 65 -1 73 14 68 21
-9 89 26 109 55 35 49 14 88 -47 88 -29 0 -45 -7 -66 -27z m89 -22 c0 -13 -50
-51 -66 -51 -17 0 -18 14 -4 41 11 20 70 28 70 10z"/>
</g>
</svg>
